<svg xmlns="http://www.w3.org/2000/svg" viewBox="0 0 400 300"><g id="_429_eating_salad_flatline" data-name="#429_eating_salad_flatline"><path d="M241.27,137.84s40.06,51.81,48.78,68.33,5,31.44,0,35.19-45.92-40.88-45.92-40.88S234.07,147.23,241.27,137.84Z" fill="#fff"/><path d="M289.3,242.23c-2,0-7.4-2.65-24.49-19.48-10.75-10.58-21-21.76-21.11-21.87a.54.54,0,0,1-.15-.29c-.41-2.19-10-53.62-2.75-63.11a.6.6,0,0,1,.47-.23h0a.58.58,0,0,1,.47.23c.4.52,40.19,52,48.84,68.41,5,9.47,5.59,17.57,5.2,22.71-.44,6-2.5,11.08-5.37,13.24A1.68,1.68,0,0,1,289.3,242.23Zm-44.61-42c16.84,18.36,41.88,43,45,40.69,4.62-3.48,8.52-18-.17-34.45-8.07-15.28-43.55-61.51-48.22-67.58C235.39,149.25,244.09,197,244.69,200.2Z" fill="#231f20"/><path d="M271.18,127.71a21,21,0,0,0-5.52,17.16c1.39,10.62,12,18.1,12.65,21.3s.66,40.26.28,52.1c-.51,16,10.7,35.95,24.22,30.69s12.67-16.33,5.91-38.85-11.45-39.67-11.45-39.67,5.17-26.22-.8-35S271.18,127.71,271.18,127.71Z" fill="#fff"/><path d="M298.39,250.41a13.48,13.48,0,0,1-7.85-2.67c-7.52-5.32-12.91-18-12.54-29.48.4-12.59.3-49-.27-52-.18-.95-1.62-2.6-3.28-4.51-3.57-4.09-8.45-9.69-9.38-16.83a21.36,21.36,0,0,1,5.7-17.66.58.58,0,0,1,.37-.17c.8,0,19.73-1,25.82,8,5.88,8.69,1.36,33.06.92,35.35.45,1.65,5,18.29,11.41,39.52,6.9,23,7.63,34.17-6.27,39.58A12.68,12.68,0,0,1,298.39,250.41ZM271.44,128.29a20.6,20.6,0,0,0-5.19,16.5c.88,6.78,5.63,12.23,9.09,16.2,1.92,2.21,3.31,3.81,3.55,5.06.64,3.34.67,40.53.3,52.24-.36,11.13,4.82,23.37,12,28.48a11.5,11.5,0,0,0,11.37,1.64c13-5.06,12.24-15.86,5.56-38.13s-11.41-39.51-11.45-39.68a.5.5,0,0,1,0-.27c.05-.26,5.05-26.08-.71-34.6C290.6,127.79,273.59,128.2,271.44,128.29Z" fill="#231f20"/><path d="M190.6,35.33c-3.57,1.82-6.87,4.09-8.6,7.61-1.81,3.67-1.62,8.24-4.1,11.5C174.21,59.29,165.57,60,164.34,66c-.48,2.33.46,4.72.32,7.1-.29,4.84-4.72,8.19-8.18,11.59-6.2,6.07-9.16,20.21-.63,25.81,5.18,3.41,12.51,1.46,17.84,4.64a30.8,30.8,0,0,1,4.14,3.35c7.51,6.42,15.06,6.18,24.27,6.64,8.92.45,15.9,4.4,24.75-.89,2.35-1.4,4.5-3.25,7.14-3.95s5.54-.14,8.32-.23c10.58-.35,16-10.15,18.34-19.37,1-4,.57-8.65-2.2-11.73s-7.55-4.78-7.86-8.82c-.27-3.55,3.41-6.9,2.14-10.22-.84-2.16-3.34-3-5.26-4.33-6.14-4.12-4.1-10.65-5.41-16.77-1.12-5.23-4.79-11.67-9.73-14-4.32-2.08-9-.77-12.59,2-4-4.13-9.64-7-15.59-6.38-3.41.36-6.6,1.77-9.74,3.15C193.15,34.11,191.86,34.69,190.6,35.33Z" fill="#fff"/><path d="M217.07,127.53a45.05,45.05,0,0,1-7.79-.9,59.8,59.8,0,0,0-7.21-.94l-2.33-.1c-8.2-.36-15.27-.68-22.29-6.68-.35-.29-.68-.59-1-.89a20.52,20.52,0,0,0-3-2.4c-2.5-1.49-5.43-1.8-8.53-2.13s-6.57-.7-9.34-2.52a12.57,12.57,0,0,1-5.47-9.69,22.38,22.38,0,0,1,6-17c.52-.51,1.07-1,1.62-1.54,3-2.84,6.16-5.77,6.39-9.66a16,16,0,0,0-.22-3,12.38,12.38,0,0,1-.09-4.21c.76-3.71,4.16-5.53,7.44-7.28,2.33-1.25,4.74-2.54,6.23-4.49,1.34-1.77,1.86-4,2.4-6.27a24.13,24.13,0,0,1,1.64-5.13c2-4,5.76-6.3,8.86-7.88h0c1.29-.65,2.61-1.25,3.84-1.79,3.14-1.39,6.38-2.82,9.92-3.2,5.43-.58,11.26,1.73,15.71,6.18,4.09-3,8.84-3.68,12.79-1.78,5.32,2.56,8.94,9.29,10,14.45a33.86,33.86,0,0,1,.58,5.43c.24,4.23.46,8.22,4.58,11,.47.31,1,.6,1.48.89,1.62.94,3.3,1.9,4,3.72.79,2-.08,4-.92,6a9.8,9.8,0,0,0-1.18,4.4c.19,2.41,2.26,4,4.44,5.64a22.78,22.78,0,0,1,3.27,2.82c2.67,3,3.54,7.56,2.34,12.27-1.85,7.23-6.75,19.42-18.9,19.82-1,0-2,0-2.9-.06a12.8,12.8,0,0,0-10.31,2.9c-.65.43-1.3.86-2,1.26A19,19,0,0,1,217.07,127.53Zm-26.2-91.67c-2.94,1.49-6.53,3.68-8.34,7.34A23,23,0,0,0,181,48.09a17.22,17.22,0,0,1-2.62,6.71c-1.64,2.16-4.17,3.51-6.61,4.82-3.18,1.7-6.19,3.3-6.84,6.47a11.41,11.41,0,0,0,.1,3.81,16.2,16.2,0,0,1,.23,3.2c-.26,4.36-3.56,7.46-6.76,10.46-.54.51-1.08,1-1.6,1.52-3.82,3.74-6.2,10.51-5.66,16.08a11.52,11.52,0,0,0,4.94,8.81c2.53,1.67,5.59,2,8.82,2.34s6.29.67,9,2.29a22.31,22.31,0,0,1,3.22,2.53l1,.88c6.71,5.74,13.6,6,21.57,6.39l2.33.11a61,61,0,0,1,7.36.95c5.87,1,10.94,1.9,17.07-1.76.65-.39,1.28-.81,1.91-1.23a18.33,18.33,0,0,1,5.38-2.78,18.56,18.56,0,0,1,5.65-.32c.92,0,1.88.09,2.8.06,11.37-.37,16-12,17.79-18.92,1.09-4.26.29-8.55-2.07-11.19a21.77,21.77,0,0,0-3.1-2.66c-2.3-1.75-4.68-3.55-4.91-6.5a10.7,10.7,0,0,1,1.27-5c.78-1.79,1.52-3.49.9-5.09-.55-1.42-2-2.24-3.48-3.11-.53-.3-1.06-.61-1.55-.94-4.61-3.09-4.86-7.56-5.1-11.89a33.3,33.3,0,0,0-.56-5.25c-1.08-5-4.66-11.35-9.41-13.63-3.72-1.8-8.08-1.08-12,2a.61.61,0,0,1-.8-.06c-4.24-4.44-9.88-6.76-15.09-6.2-3.35.35-6.51,1.75-9.57,3.1-1.22.54-2.52,1.13-3.78,1.77Z" fill="#231f20"/><path d="M239.39,194.39c-.37-11,6-53.17,1.88-56.55-1.72-1.43-9.56-2.86-18.62-5.42l-1.28-18.49s13.52-3.65,14.11-14.62a103.6,103.6,0,0,0-1-20.15c-.82-5.34-.48-11.83-3.84-16.4-2.29-3.12-13.54-5.88-10.5-11.94A26,26,0,0,1,204.06,64c-4.57,1.27-9.83,1.45-13.18,4.81-6.43,6.44-3.36,20-3,28,.48,9.86,1.15,13.9,1.73,23.75,0,.9.18,7.28-9.29,9.68-7.21,1.82-27.68.52-40.07,12.53s9,73.86,9,73.86l83.2-1.2S239.77,205.43,239.39,194.39Z" fill="#fff"/><path d="M149.29,217.27a.6.6,0,0,1-.57-.4c-.87-2.54-21.37-62.34-8.85-74.47,9.55-9.27,23.79-10.73,33.21-11.7a57.41,57.41,0,0,0,7.13-1c8-2,8.85-7,8.83-9.06-.26-4.58-.55-7.9-.83-11.12-.33-3.78-.64-7.35-.89-12.64-.08-1.54-.26-3.31-.44-5.18-.8-8-1.8-17.91,3.58-23.3,2.61-2.62,6.3-3.39,9.87-4.14,1.19-.24,2.42-.5,3.57-.82a25.44,25.44,0,0,0,15.69-12.9h0a.6.6,0,0,1,.8-.26.58.58,0,0,1,.26.79h0c-1.68,3.34,1.43,5.48,6,8.12,2,1.13,3.62,2.1,4.44,3.21,2.63,3.58,3.07,8.17,3.48,12.61.14,1.42.27,2.76.46,4a103,103,0,0,1,1,20.27c-.54,10.08-11.64,14.23-14.07,15l1.21,17.6c3,.85,5.89,1.57,8.44,2.21,5.1,1.28,8.78,2.2,10,3.22,2.64,2.19,1.55,16.42-.27,36.28-.79,8.62-1.53,16.75-1.4,20.7h0c.38,11.12-6.72,21-7,21.45a.57.57,0,0,1-.47.25l-83.2,1.2Zm69.8-163.51a26.69,26.69,0,0,1-14.87,10.83c-1.19.33-2.44.59-3.65.84-3.55.74-6.91,1.45-9.27,3.82-5,5-4,14.61-3.24,22.34.19,1.89.36,3.67.44,5.24.26,5.27.57,8.83.89,12.6.28,3.22.57,6.56.84,11.14,0,2.4-.88,8.06-9.73,10.29a59.22,59.22,0,0,1-7.3,1c-9.26,1-23.25,2.39-32.51,11.37-11.46,11.11,7.21,67.47,9,72.83l82.46-1.19c1.07-1.58,7-10.7,6.63-20.48h0c-.14-4,.61-12.19,1.4-20.85,1.29-14.05,3.05-33.3.69-35.26-1-.84-5-1.83-9.53-3-2.67-.67-5.69-1.43-8.87-2.33a.59.59,0,0,1-.43-.53L220.78,114a.58.58,0,0,1,.44-.61c.13,0,13.1-3.67,13.67-14.08a102.07,102.07,0,0,0-1-20c-.2-1.33-.33-2.68-.47-4.12-.4-4.28-.82-8.7-3.26-12a15.08,15.08,0,0,0-4.07-2.88C223.16,58.55,219.72,56.56,219.09,53.76Zm13.39,161.72h0Z" fill="#231f20"/><path d="M253.11,215.18c1-1.88,0-66.77,0-66.77s-7.81-6.83-11.84-10.57-18.62-5.42-18.62-5.42S221.16,158.87,201.4,154s-21.05-23.7-21.05-23.7-27.37,1-40.07,12.53,9,73.86,9,73.86Z" fill="#231f20"/><path d="M149.29,217.27a.58.58,0,0,1-.56-.4c-.9-2.56-21.69-62.82-8.85-74.49,6.66-6,17.32-9.17,25.08-10.73a108.43,108.43,0,0,1,15.37-2,.62.62,0,0,1,.62.55c0,.19,1.5,18.45,20.59,23.17,4.77,1.18,8.84.56,12.09-1.84,7.58-5.59,8.42-19,8.43-19.18a.54.54,0,0,1,.21-.42.56.56,0,0,1,.45-.14c.6.07,14.83,1.75,18.95,5.58S253.43,147.9,253.5,148a.61.61,0,0,1,.21.43c.16,10.86.93,65.14-.07,67a.58.58,0,0,1-.52.32l-103.83,1.5Zm30.54-86.36c-3.92.22-27.74,2-39.15,12.35-11.74,10.67,7.2,67.44,9,72.82l102.93-1.49c.58-4.33.26-41.15-.11-65.91-1.25-1.09-8-7-11.66-10.4-3.39-3.14-14.89-4.82-17.68-5.19-.26,2.83-1.72,14.16-8.85,19.43-3.55,2.62-8,3.31-13.08,2C183.28,150.12,180.26,134.16,179.83,130.91Zm73.28,84.27h0Zm0,0h0Z" fill="#231f20"/><path d="M162.37,130.66s14.5,14.69,22.57,52.36c0,0-25.26,26.53-33.71,27.84s-5.63,3.19-5.63,3.19l13.78,55.64h92.84l-1.13-30.11S257.19,230,260,214s-7.36-28.75-7.36-28.75-6.36-41-15.41-51.14L230.12,132s13.75,41.89,13.56,50.45-40,7.9-48.83-.12c-2.7-17.87-6-24.35-12.57-35s-11.21-18.11-11.21-18.11Z" fill="#ff6461"/><path d="M140.28,142.82C126.2,156,75.87,236.29,88.54,250.37S158.93,236,166,236.58s32.14,1.12,39.44-.85,27.31-12.93,22.5-17.46-21.66,5.07-23.08,5.64-34.58-5.92-40.38-5.35-33.61.38-33.61.38,34.8-37.46,33.45-54.8C162.91,146.46,151.87,132,140.28,142.82Z" fill="#fff"/><path d="M100.72,254.89c-5.51,0-10-1.18-12.62-4.12-7.6-8.45,6.61-38,15.76-54.8,13.15-24.22,29.24-47.25,36-53.58,4.92-4.6,9.24-4.29,12-3.22,6.71,2.61,12.06,12.86,13,24.92,1.25,16-27.09,48.09-32.7,54.26,5.62,0,27.24.1,32.21-.38,3.44-.34,15.58,1.63,26.29,3.37,6.49,1,13.19,2.15,14,2l1.18-.59c7.72-3.92,18.45-8.69,22.48-4.91a2.82,2.82,0,0,1,.82,2.87c-1.41,5.61-17.46,13.94-23.58,15.59-7.43,2-32.64,1.43-39.64.87-1.93-.17-8.58,2.25-16.3,5C134.76,247.57,114.48,254.89,100.72,254.89Zm39.56-112.07.41.44C134,149.52,118,172.42,104.9,196.53,89.58,224.72,83.78,244.2,89,250c8.73,9.7,41-1.94,60.23-8.89,8.5-3.06,14.65-5.29,16.81-5.1,6.73.53,32,1.11,39.23-.83,6.38-1.72,21.54-10,22.74-14.74a1.62,1.62,0,0,0-.48-1.71c-2.58-2.42-9.69-.71-21.13,5.1-.7.35-1.12.56-1.33.65-.65.26-3.69-.18-14.56-2-10.12-1.64-22.71-3.68-26-3.36-5.77.56-32.54.39-33.67.38a.58.58,0,0,1-.54-.36.59.59,0,0,1,.11-.64c.34-.37,34.61-37.46,33.29-54.35-.91-11.62-5.94-21.45-12.25-23.9-3.5-1.36-7.22-.33-10.76,3Z" fill="#231f20"/><path d="M191.07,80.06c-1.58-4.44-7.39-7.64-12-6.45-6,1.53-5.23,8.38-2.9,12.61a11.08,11.08,0,0,0,15.2,4.29" fill="#fff"/><path d="M185.86,92.55a11.62,11.62,0,0,1-3.15-.43,11.75,11.75,0,0,1-7.06-5.61c-1.41-2.55-2.56-6.66-1.17-9.86A6.31,6.31,0,0,1,178.92,73c4.84-1.24,11,2.08,12.71,6.84a.59.59,0,0,1-.36.75.59.59,0,0,1-.76-.36c-1.5-4.23-7-7.18-11.3-6.08a5.11,5.11,0,0,0-3.64,2.94c-1.14,2.63-.26,6.32,1.12,8.82A10.5,10.5,0,0,0,191.08,90a.59.59,0,0,1,.58,1A11.71,11.71,0,0,1,185.86,92.55Z" fill="#231f20"/><path d="M216.85,89.12a14.77,14.77,0,0,1-1.64-.09.59.59,0,1,1,.14-1.18c1.29.15,4.89.22,5.92-1.28.72-1-3.16-6.66-7.24-11.26a.6.6,0,1,1,.89-.79c8.41,9.48,7.73,12.14,7.33,12.72C221.15,88.83,218.58,89.12,216.85,89.12Z" fill="#231f20"/><path d="M221.89,113.52s-7.81,2.21-17.84-3.08c0,0,4.91,14.37,18.88,14.39Z" fill="#231f20"/><path d="M222.93,125.42h0c-14.22,0-19.38-14.64-19.43-14.79a.58.58,0,0,1,.83-.71c9.69,5.1,17.33,3,17.41,3a.57.57,0,0,1,.49.08.6.6,0,0,1,.26.44l1,11.3a.61.61,0,0,1-.16.46A.59.59,0,0,1,222.93,125.42Zm-17.72-13.73c1.64,3.49,6.74,12.17,17.06,12.53l-.91-10C219.33,114.64,213.08,115.38,205.21,111.69Z" fill="#231f20"/><path d="M225.6,96.3,206.51,94s1,10.32,9,11.21S225.6,96.3,225.6,96.3Z" fill="#231f20"/><path d="M216.53,105.9a10,10,0,0,1-1.08-.06c-8.41-.94-9.52-11.63-9.53-11.74a.58.58,0,0,1,.18-.48.54.54,0,0,1,.48-.16l19.09,2.25a.58.58,0,0,1,.41.24.57.57,0,0,1,.1.47C226.16,96.52,224.1,105.9,216.53,105.9Zm-9.32-11.18c.41,2.31,2.14,9.25,8.37,9.94s8.69-5.75,9.28-7.85Z" fill="#231f20"/><circle cx="224.63" cy="100.97" r="5.49" fill="#d1d3d4"/><path d="M224.63,107.05a6.08,6.08,0,1,1,6.09-6.08A6.09,6.09,0,0,1,224.63,107.05Zm0-11a4.9,4.9,0,1,0,4.9,4.9A4.9,4.9,0,0,0,224.63,96.07Z" fill="#231f20"/><path d="M236.6,109.42a2,2,0,0,0-2,.5,2.23,2.23,0,0,1-.91.51.69.69,0,0,1-.82-.48c.41-.37-.07-1.09-.61-1.15a5.25,5.25,0,0,0-1.59.37,2.51,2.51,0,0,1-1.8-.27c.55-.35,1.16-.8,1.17-1.45,0-.41-.26-.8-.2-1.21.1-.71,1.1-1.14,1-1.85-.18-1-2.26-.62-2.39-1.65a.85.85,0,0,1,.47-.8,2.53,2.53,0,0,1,.94-.26c-.33-.87-1.47-1.07-2.41-1.07s-2,0-2.58-.79a1.39,1.39,0,0,1,1.64-2.1,8.76,8.76,0,0,1-.91-1.84,1.9,1.9,0,0,1-.12-1.15.77.77,0,0,1,.89-.58.78.78,0,0,0,.36.1c.16,0,.26-.19.34-.33A5.15,5.15,0,0,1,228.84,92a2.29,2.29,0,0,1,2.68-.12c.65.57.66,1.6,1.22,2.25a2.57,2.57,0,0,0,2,.74c.75,0,1.49-.2,2.23-.22a1.79,1.79,0,0,1,1,.23c.84.57.49,2,1.21,2.73.9.89,2.77,0,3.54,1,.52.69.06,1.67-.41,2.41.49.46,1.17.72,1.53,1.28a1.83,1.83,0,0,1,0,1.8,3,3,0,0,1-1.36,1.26,7.62,7.62,0,0,0-3.14,3.1c-.31.53-.45,1.68-1.11,1.9S237.16,109.71,236.6,109.42Z" fill="#ff6461"/><path d="M238.05,110.89a1.83,1.83,0,0,1-1.22-.69,2.29,2.29,0,0,0-.43-.38h0c-.47-.23-1.13.18-1.48.45a2.62,2.62,0,0,1-1.11.6,1.25,1.25,0,0,1-.94-.22,1,1,0,0,1-.4-.64.46.46,0,0,1,.15-.4.29.29,0,0,0-.06-.16.47.47,0,0,0-.31-.2,2.12,2.12,0,0,0-.87.18q-.28.1-.57.18a3,3,0,0,1-2.13-.33.43.43,0,0,1-.22-.37.46.46,0,0,1,.21-.39c.47-.3,1-.66,1-1.07a1.58,1.58,0,0,0-.09-.43,1.87,1.87,0,0,1-.1-.84,2.07,2.07,0,0,1,.61-1.08c.24-.29.39-.47.36-.63s-.37-.33-.89-.47-1.4-.39-1.5-1.2a1.29,1.29,0,0,1,.69-1.25,1.58,1.58,0,0,1,.35-.16,3.27,3.27,0,0,0-1.6-.33c-1,0-2.25,0-2.94-1a1.84,1.84,0,0,1,1.18-2.87,8.24,8.24,0,0,1-.51-1.18,2.29,2.29,0,0,1-.13-1.43,1.36,1.36,0,0,1,.64-.79,1,1,0,0,1,.81-.08l.14,0a.49.49,0,0,1,0-.07,5.49,5.49,0,0,1,1.92-2.08,2.7,2.7,0,0,1,3.22-.08,3.18,3.18,0,0,1,.8,1.36,2.89,2.89,0,0,0,.46.93,2.12,2.12,0,0,0,1.68.58c.36,0,.71-.06,1.07-.1a8.93,8.93,0,0,1,1.16-.11,2.22,2.22,0,0,1,1.28.3,2.43,2.43,0,0,1,.85,1.68A1.43,1.43,0,0,0,241,97.63a2.51,2.51,0,0,1,2.12.75A2.36,2.36,0,0,1,243,101l.29.21a3.36,3.36,0,0,1,1,.93,2.33,2.33,0,0,1,0,2.25,3.45,3.45,0,0,1-1.56,1.45,7.16,7.16,0,0,0-2.95,2.93,3.35,3.35,0,0,0-.24.56c-.2.59-.46,1.32-1.12,1.54A1.43,1.43,0,0,1,238.05,110.89ZM236.8,109a2.7,2.7,0,0,1,.67.54c.35.37.49.47.69.41s.42-.59.56-1a5.37,5.37,0,0,1,.31-.72,7.93,7.93,0,0,1,3.32-3.26,2.67,2.67,0,0,0,1.16-1.07,1.37,1.37,0,0,0,0-1.36,2.7,2.7,0,0,0-.77-.67,4.8,4.8,0,0,1-.68-.53.43.43,0,0,1-.07-.56c.56-.89.7-1.53.42-1.9s-.71-.37-1.44-.39a2.25,2.25,0,0,1-2.72-2.16,1.75,1.75,0,0,0-.48-1.12,1.29,1.29,0,0,0-.76-.15c-.36,0-.71.06-1.07.1a8.93,8.93,0,0,1-1.16.11,3.06,3.06,0,0,1-2.38-.89,3.67,3.67,0,0,1-.62-1.19,2.62,2.62,0,0,0-.55-1,1.91,1.91,0,0,0-2.15.17,4.67,4.67,0,0,0-1.61,1.75,1,1,0,0,1-.67.57,1.07,1.07,0,0,1-.49-.09.21.21,0,0,0-.19,0,.45.45,0,0,0-.2.25,1.55,1.55,0,0,0,.11.89,8.09,8.09,0,0,0,.87,1.74.47.47,0,0,1,0,.53.45.45,0,0,1-.51.13,1,1,0,0,0-1.09.3,1,1,0,0,0,0,1.12c.39.55,1.23.6,2.22.6,1.9,0,2.58.75,2.82,1.36a.45.45,0,0,1,0,.39.45.45,0,0,1-.33.22,2.23,2.23,0,0,0-.78.2.45.45,0,0,0-.25.36c0,.2.36.31.86.45s1.39.39,1.53,1.17a1.63,1.63,0,0,1-.57,1.37,1.56,1.56,0,0,0-.4.63,1.31,1.31,0,0,0,.08.47,2.28,2.28,0,0,1,.12.67,1.74,1.74,0,0,1-.67,1.31,2,2,0,0,0,.76,0,3,3,0,0,0,.48-.15,3,3,0,0,1,1.25-.22,1.37,1.37,0,0,1,1.12.92,1,1,0,0,1,0,.67.3.3,0,0,0,.2,0,1.81,1.81,0,0,0,.66-.38c1.22-.93,2-.82,2.49-.58Z" fill="#231f20"/><path d="M291.4,152.16s-40.26-31-42.37-32.71-3.66-5.07-5.49-7.18-9.43-7.87-9.43-7.87l.84-.72,2.91-2.49.75-.89s6.29,2.11,8.68,4.55,3.5,6.2,5.12,9.94,42.94,34.15,43.92,35.07S292.72,152.51,291.4,152.16Z" fill="#fff"/><path d="M291.79,152.79a2.12,2.12,0,0,1-.54-.06.53.53,0,0,1-.21-.11c-.4-.31-40.29-31-42.38-32.71a18.66,18.66,0,0,1-3.5-4.37,27.2,27.2,0,0,0-2.07-2.88c-1.77-2-9.27-7.73-9.34-7.78a.64.64,0,0,1-.24-.46.61.61,0,0,1,.21-.47l3.75-3.21.69-.82a.58.58,0,0,1,.64-.18c.26.09,6.45,2.18,8.92,4.7,1.94,2,3,4.73,4.21,7.64.33.81.66,1.65,1,2.48,1.22,2.82,28.38,23.24,38.61,30.93,3.43,2.58,5,3.73,5.17,3.93a1,1,0,0,1,.19,1.23C296.34,151.71,293.37,152.79,291.79,152.79Zm-.13-1.19a7.75,7.75,0,0,0,4.14-1.41c-.53-.43-2.51-1.92-5-3.75-18.61-14-37.79-28.68-39-31.41-.36-.84-.7-1.68-1-2.51-1.12-2.8-2.18-5.44-4-7.25-1.94-2-6.69-3.78-8.07-4.27l-.49.57-3.26,2.81c1.83,1.4,7.37,5.69,8.94,7.5a29.78,29.78,0,0,1,2.16,3A18,18,0,0,0,249.4,119C251.43,120.61,289.35,149.83,291.66,151.6Z" fill="#231f20"/><path d="M243.68,109.13a.59.59,0,0,1-.49-.26c-1.91-2.77-7.79-5.14-7.85-5.16a.6.6,0,0,1-.33-.77.59.59,0,0,1,.77-.33c.26.1,6.27,2.52,8.39,5.59a.6.6,0,0,1-.15.83A.61.61,0,0,1,243.68,109.13Z" fill="#231f20"/><path d="M245.3,107a.58.58,0,0,1-.48-.25c-2.11-3-7.67-4.46-7.73-4.47a.59.59,0,0,1-.42-.73.58.58,0,0,1,.72-.42c.25.06,6,1.63,8.39,4.93a.59.59,0,0,1-.48.94Z" fill="#231f20"/><path d="M236.93,186.15c0,2.84-2.77,9.85-7.56,17.62a83.42,83.42,0,0,1-17.24,20.41,102.4,102.4,0,0,1-44.71,0,83.64,83.64,0,0,1-17.24-20.41c-4.78-7.77-7.56-14.78-7.56-17.62,0-7.87,21.11-14.25,47.16-14.25S236.93,178.28,236.93,186.15Z" fill="#fff"/><path d="M189.78,227.15a97.91,97.91,0,0,1-22.48-2.48.54.54,0,0,1-.2-.1C159.18,218,153.3,209.8,149.75,204c-4.49-7.31-7.63-14.66-7.63-17.89,0-8.27,20.94-14.75,47.66-14.75s47.65,6.48,47.65,14.75c0,3.23-3.14,10.59-7.63,17.89a84.33,84.33,0,0,1-17.35,20.53.54.54,0,0,1-.2.1A97.89,97.89,0,0,1,189.78,227.15Zm-22.13-3.42a102.35,102.35,0,0,0,44.25,0,83.68,83.68,0,0,0,17-20.22c4.91-8,7.48-14.77,7.48-17.36,0-7.46-21.37-13.75-46.65-13.75s-46.66,6.29-46.66,13.75c0,2.58,2.57,9.38,7.49,17.36A83.23,83.23,0,0,0,167.65,223.73Zm44.48.45h0Z" fill="#231f20"/><path d="M156.16,167.43c1-.33,1.67-1.49,2.4-2.35a4,4,0,0,1,3.74-1.56,14.73,14.73,0,0,0,2,.62c1.62.13,2.69-1.56,4-2.54a5.19,5.19,0,0,1,3.61-1c2,.18,2.8,3,4.61,4a5.67,5.67,0,0,0,4.92.27c1-.46,1.93-1.3,3.06-1.44a3.57,3.57,0,0,1,2.91,1.22,10.16,10.16,0,0,1,1.71,2.78c2,4.19,6.16,12.16,1.62,16.34a6.58,6.58,0,0,1-2.93,1.32,36.42,36.42,0,0,1-12.78.84c-1.89-.21-4.23-1.26-6.09-1.15-.71.05-1.4.62-2.17.7a7.6,7.6,0,0,1-3-.46,52.33,52.33,0,0,1-6.28-2.39,15.54,15.54,0,0,1-3.53-2.06c-2.94-2.41-4.1-6.37-4.62-10.14a6.4,6.4,0,0,1,.14-3.14,2.42,2.42,0,0,1,2.42-1.67c1.37.2,2.2,1.9,3.59,2A1.74,1.74,0,0,0,156.16,167.43Z" fill="#ff6461"/><path d="M179.06,186.54a37.73,37.73,0,0,1-4.11-.22,18.61,18.61,0,0,1-2.57-.56,11.72,11.72,0,0,0-3.44-.59,3.32,3.32,0,0,0-.93.3,3.85,3.85,0,0,1-1.23.39,8,8,0,0,1-3.12-.47,52.72,52.72,0,0,1-6.34-2.42,15.82,15.82,0,0,1-3.62-2.11c-2.55-2.09-4.11-5.5-4.78-10.43a6.87,6.87,0,0,1,.16-3.36,2.88,2.88,0,0,1,2.91-1.95,3.94,3.94,0,0,1,1.94,1.08,3,3,0,0,0,1.6.88A1.39,1.39,0,0,0,156,167a4.6,4.6,0,0,0,1.7-1.59c.16-.22.33-.43.49-.63a4.43,4.43,0,0,1,4.19-1.71,6.35,6.35,0,0,1,.9.31,3.75,3.75,0,0,0,1,.3c.94.06,1.75-.68,2.58-1.48a14.25,14.25,0,0,1,1.09-1,5.74,5.74,0,0,1,3.92-1.12c1.31.13,2.14,1.19,3,2.22a6.54,6.54,0,0,0,1.83,1.81,5.27,5.27,0,0,0,4.52.26,10.17,10.17,0,0,0,1-.56,5.62,5.62,0,0,1,2.19-.92,4,4,0,0,1,3.29,1.35,11.06,11.06,0,0,1,1.79,2.89l.26.55c2.19,4.52,5.85,12.09,1.25,16.32a7,7,0,0,1-3.12,1.43A37,37,0,0,1,179.06,186.54Zm-9.87-2.27a14.2,14.2,0,0,1,3.42.62,16,16,0,0,0,2.44.54,35.91,35.91,0,0,0,12.62-.83,6.28,6.28,0,0,0,2.74-1.22c4.1-3.78.63-11-1.45-15.27l-.27-.55a10.17,10.17,0,0,0-1.63-2.66,3.13,3.13,0,0,0-2.53-1.09,4.83,4.83,0,0,0-1.83.8,10.81,10.81,0,0,1-1.11.61,6.11,6.11,0,0,1-5.31-.28,7.22,7.22,0,0,1-2.11-2.05c-.73-.92-1.41-1.79-2.34-1.88a4.79,4.79,0,0,0-3.29.94,11.68,11.68,0,0,0-1,.91c-.94.9-1.9,1.83-3.28,1.72a4.41,4.41,0,0,1-1.28-.36,4.37,4.37,0,0,0-.77-.26,3.58,3.58,0,0,0-3.3,1.41c-.16.18-.32.39-.48.59a4.92,4.92,0,0,1-2.12,1.89h0a1.88,1.88,0,0,1-.81.12,3.67,3.67,0,0,1-2.13-1.08,3.34,3.34,0,0,0-1.5-.89,2,2,0,0,0-1.94,1.39,5.87,5.87,0,0,0-.11,2.92c.63,4.69,2.09,7.92,4.45,9.86a15.17,15.17,0,0,0,3.43,2,52.75,52.75,0,0,0,6.24,2.38,7.09,7.09,0,0,0,2.76.43,3.19,3.19,0,0,0,1-.32,3.56,3.56,0,0,1,1.24-.37Zm-13-16.84h0Z" fill="#231f20"/><path d="M159.33,168.53s.21,2.93,5.77,5,10.36,1.1,13.26-2.12,1.95-9.47,1.95-9.47a14,14,0,0,1-9.32,6A35.48,35.48,0,0,1,159.33,168.53Z" fill="#fff"/><path d="M170.74,175.13a16.64,16.64,0,0,1-5.81-1.13c-5.8-2.16-6.09-5.3-6.1-5.44a.48.48,0,0,1,.17-.4.5.5,0,0,1,.42-.13,35.24,35.24,0,0,0,11.47-.56,13.58,13.58,0,0,0,9-5.77.49.49,0,0,1,.53-.25.5.5,0,0,1,.4.42c0,.27.86,6.64-2.06,9.88A10.47,10.47,0,0,1,170.74,175.13Zm-10.7-6c.41.91,1.64,2.6,5.24,3.94,5.18,1.94,9.82,1.22,12.71-2,1.86-2.06,2-5.74,1.92-7.72a15,15,0,0,1-8.83,5.09A38.25,38.25,0,0,1,160,169.12Z" fill="#231f20"/><path d="M159.33,168.53s3.94,3.09,10.7,1.19c5.58-1.56,8.39-3.64,10.28-7.78C180.31,161.94,165.82,168.44,159.33,168.53Z" fill="#fff"/><path d="M165.73,170.84a11.3,11.3,0,0,1-6.7-1.92.49.49,0,0,1-.17-.55.51.51,0,0,1,.47-.34c6.3-.09,20.63-6.48,20.77-6.55a.51.51,0,0,1,.56.11.49.49,0,0,1,.1.56c-1.93,4.25-4.8,6.43-10.6,8.06A16.33,16.33,0,0,1,165.73,170.84Zm-4.7-2a13,13,0,0,0,8.86.35c4.87-1.36,7.55-3.13,9.34-6.28C175.87,164.4,166.77,168.14,161,168.89Z" fill="#231f20"/><path d="M232.48,186.15c0,1.77-1.67,3.45-4.64,4.93l-.33.17a35.56,35.56,0,0,1-4.72,1.8,89.1,89.1,0,0,1-16.58,3.15c-3.37.36-7,.61-10.72.74-1.6.05-3.24.08-4.9.09h-.81q-3,0-6-.1c-15.84-.57-28.89-3.35-34.19-7.08-1.65-1.15-2.55-2.4-2.55-3.7a3.07,3.07,0,0,1,.4-1.48c.76-1.44,2.62-2.78,5.34-4,7.39-3.25,21.18-5.43,37-5.43a148.66,148.66,0,0,1,21.27,1.44q1.88.27,3.63.6c1.54.28,3,.59,4.38.92s2.46.63,3.58,1c5.77,1.76,9.38,4,9.79,6.47A2,2,0,0,1,232.48,186.15Z" fill="#231f20"/><path d="M189.78,197.57c-2,0-4,0-6-.1-15.78-.57-29-3.32-34.48-7.18-1.84-1.29-2.77-2.68-2.77-4.14a3.57,3.57,0,0,1,.46-1.74c.8-1.51,2.68-2.93,5.6-4.21,7.68-3.38,21.93-5.48,37.18-5.48a149.57,149.57,0,0,1,21.34,1.45c1.28.19,2.51.39,3.66.6,1.53.28,3,.59,4.4.93s2.52.64,3.61,1c4.34,1.33,9.62,3.6,10.17,6.9a2.37,2.37,0,0,1,.06.57c0,1.95-1.66,3.78-4.94,5.41l-.34.17a34.73,34.73,0,0,1-4.79,1.83,89.83,89.83,0,0,1-16.68,3.17c-3.46.37-7.08.62-10.76.74-1.53.06-3.13.09-4.92.1Zm0-21.78c-15.11,0-29.19,2.07-36.75,5.39-2.65,1.17-4.41,2.46-5.09,3.74a2.58,2.58,0,0,0-.33,1.23c0,1.08.78,2.18,2.32,3.26,5.33,3.75,18.32,6.42,33.9,7,2,.07,4,.11,5.95.11a7,7,0,0,0,.8,0c1.78,0,3.38,0,4.89-.09,3.66-.12,7.25-.37,10.68-.73a90,90,0,0,0,16.48-3.13,34,34,0,0,0,4.65-1.78l.33-.16c2.83-1.42,4.33-3,4.33-4.45a2.05,2.05,0,0,0,0-.37c-.37-2.17-3.71-4.32-9.43-6.07-1.08-.33-2.24-.65-3.55-1s-2.83-.64-4.35-.92c-1.13-.21-2.35-.41-3.61-.6A149,149,0,0,0,189.78,175.79Z" fill="#231f20"/><path d="M199,163c.49.41.88,1,1.49,1.17,1.25.34,2.25-1.26,3.53-1.32s2.12,1.42,3.12,2.32c2.82,2.52,7.29.11,11,.81,1.54.3,3.45.62,4.4,2,.64.91,1.25,2,2.34,2.24a5,5,0,0,0,2.22-.42,2,2,0,0,1,2.11.38c.34.45.38,1.2.92,1.39a1.38,1.38,0,0,0,.75,0l3.14-.86a2,2,0,0,1,1-.08,1.31,1.31,0,0,1,.81,1.48,3.74,3.74,0,0,1-.82,1.64q-1.83,2.52-3.67,5c-2.8,3.81-6.51,7.2-11.09,8.69-5.83,1.9-12.4,1.32-18.26-.09s-14-5.35-13.47-12.7C188.78,171.13,194.14,158.94,199,163Z" fill="#ff6461"/><path d="M212.05,189.08a43.92,43.92,0,0,1-10.16-1.31c-7-1.69-14.3-6-13.8-13.17.2-2.89,3.52-10.89,7.41-12.54a3.49,3.49,0,0,1,3.8.63h0a6.17,6.17,0,0,1,.46.43,2.2,2.2,0,0,0,.86.65c.49.14,1-.19,1.55-.56a3.8,3.8,0,0,1,1.84-.78c1.18-.07,2,.84,2.67,1.63a10.07,10.07,0,0,0,.77.81c1.56,1.4,3.77,1.12,6.1.82a15.1,15.1,0,0,1,4.69-.11l.14,0c1.57.3,3.52.67,4.55,2.13l.27.39c.5.75,1,1.52,1.78,1.66a3.22,3.22,0,0,0,1.52-.25l.49-.16a2.32,2.32,0,0,1,2.59.54,3,3,0,0,1,.36.68c.13.31.21.5.35.55a.94.94,0,0,0,.49,0l3.14-.86a2.35,2.35,0,0,1,1.23-.09,1.78,1.78,0,0,1,1.14,2,4.36,4.36,0,0,1-.91,1.84c-1.21,1.67-2.44,3.35-3.67,5-3.26,4.45-7.18,7.51-11.31,8.86A26.9,26.9,0,0,1,212.05,189.08Zm-15.11-26.43a2.76,2.76,0,0,0-1.09.24c-3.47,1.47-6.69,9.2-6.87,11.77-.46,6.59,6.48,10.64,13.12,12.24,7,1.68,13.06,1.71,18,.1,4-1.29,7.72-4.24,10.87-8.54q1.84-2.51,3.67-5a3.48,3.48,0,0,0,.74-1.44c.06-.39-.13-.9-.48-1a1.62,1.62,0,0,0-.77.09L231,172a1.73,1.73,0,0,1-1,0,1.62,1.62,0,0,1-.89-1.06,2.38,2.38,0,0,0-.24-.48c-.32-.42-1.05-.39-1.63-.22l-.46.15a3.09,3.09,0,0,1-4.32-1.76l-.26-.38c-.82-1.16-2.5-1.48-4-1.76l-.14,0a14.61,14.61,0,0,0-4.41.13c-2.43.31-4.94.62-6.81-1.05a11.64,11.64,0,0,1-.84-.88c-.6-.68-1.17-1.33-1.89-1.33h-.06a3.13,3.13,0,0,0-1.4.64,2.84,2.84,0,0,1-2.28.67,3,3,0,0,1-1.26-.88l-.39-.38h0A2.77,2.77,0,0,0,196.94,162.65Z" fill="#231f20"/><path d="M193.75,167.56c1.2-.8,3.19-.52,3.61.85.21.66,0,1.43.42,2a1.81,1.81,0,0,0,1.92.5,7.61,7.61,0,0,0,3.07-1.85,7.94,7.94,0,0,1,3.06-1.88,2.7,2.7,0,0,1,3.12,1.18c.35.73.33,1.77,1.07,2.09a1.51,1.51,0,0,0,.87.05,5.21,5.21,0,0,0,2-.78c1-.68,2.06-1.8,3.3-1.59s1.89,1.87,2.15,3.23a10.34,10.34,0,0,1,3.79-.28,3.55,3.55,0,0,1,2.87,2.21,4.56,4.56,0,0,1,.07,1.91c-.75,5.63-4.71,10.43-9.47,13.53-6.24,4.07-14.36,5.62-21.34,3-4.37-1.64-7.66-6-6.58-10.82.48-2.15,1.69-4.27,2.47-6.33S191.66,169,193.75,167.56Z" fill="#ff6461"/><path d="M201.56,193.45a21.3,21.3,0,0,1-7.45-1.29c-4.3-1.61-8-6-6.86-11.34a23,23,0,0,1,1.58-4.23c.33-.74.65-1.45.91-2.16.18-.46.35-1,.52-1.53.69-2.12,1.47-4.53,3.25-5.71h0a3.27,3.27,0,0,1,2.84-.34,2.21,2.21,0,0,1,1.44,1.43,3.74,3.74,0,0,1,.14.93,2,2,0,0,0,.21.94,1.43,1.43,0,0,0,1.46.33,7.38,7.38,0,0,0,2.88-1.76,8.44,8.44,0,0,1,3.24-2,3.16,3.16,0,0,1,3.63,1.42,5.22,5.22,0,0,1,.29.84c.15.56.27.91.56,1a1.18,1.18,0,0,0,.62,0,4.93,4.93,0,0,0,1.84-.71c.24-.16.48-.34.72-.52a3.87,3.87,0,0,1,2.89-1.14c1.62.28,2.2,2.11,2.43,3.14a9.8,9.8,0,0,1,3.51-.19,4,4,0,0,1,3.23,2.52,4.85,4.85,0,0,1,.08,2.1c-.7,5.25-4.22,10.29-9.66,13.84A26.48,26.48,0,0,1,201.56,193.45ZM194,167.93c-1.52,1-2.24,3.26-2.88,5.25-.19.56-.36,1.09-.54,1.57-.28.73-.61,1.48-.94,2.21a21.67,21.67,0,0,0-1.51,4c-1.07,4.82,2.35,8.83,6.29,10.31,6.43,2.4,14.46,1.26,21-3,5.23-3.4,8.6-8.22,9.26-13.2a4,4,0,0,0,0-1.73,3.14,3.14,0,0,0-2.53-1.9,9.88,9.88,0,0,0-3.62.28.45.45,0,0,1-.34-.07.44.44,0,0,1-.19-.29c-.34-1.78-.93-2.72-1.79-2.87a3.17,3.17,0,0,0-2.2,1c-.26.2-.52.39-.78.56a5.71,5.71,0,0,1-2.17.84,2,2,0,0,1-1.13-.08,2.21,2.21,0,0,1-1.07-1.63,3.88,3.88,0,0,0-.22-.68,2.29,2.29,0,0,0-2.61-.94,7.49,7.49,0,0,0-2.88,1.79,8.23,8.23,0,0,1-3.26,1.95,2.23,2.23,0,0,1-2.39-.69,2.57,2.57,0,0,1-.37-1.39,3.79,3.79,0,0,0-.1-.73,1.35,1.35,0,0,0-.89-.85,2.42,2.42,0,0,0-2.05.24Z" fill="#231f20"/><path d="M211.1,167.72c-.56,2.71-3.13,8.41-9.25,9.22s-8.85-1-12-5.25a11.75,11.75,0,0,1-2.29-8.56l19,3.54,2.49.51Z" fill="#fff"/><path d="M199.28,177.62c-4.68,0-7.18-2.06-9.82-5.64a12.12,12.12,0,0,1-2.37-8.95.5.5,0,0,1,.58-.4l21.53,4.06,2,.55a.48.48,0,0,1,.36.58c-.66,3.19-3.44,8.8-9.67,9.62A21.16,21.16,0,0,1,199.28,177.62ZM188,163.71a11.59,11.59,0,0,0,2.26,7.68c3,4.06,5.48,5.86,11.52,5.05,5.39-.71,8-5.39,8.72-8.36l-1.54-.42-2.46-.5Z" fill="#231f20"/><path d="M199.67,175.66a8.6,8.6,0,0,1-6.28-2.83,14.57,14.57,0,0,1-3.66-8.57.5.5,0,0,1,.45-.55.51.51,0,0,1,.54.45,13.9,13.9,0,0,0,3.39,8c3.74,3.87,8.2,2.71,10.89.55,3.1-2.51,3.44-4.89,3.45-4.92a.49.49,0,0,1,.55-.43.5.5,0,0,1,.44.55c0,.11-.36,2.79-3.81,5.57A9.65,9.65,0,0,1,199.67,175.66Z" fill="#d1d3d4"/><path d="M206.61,167.05a5.45,5.45,0,0,1-1,1.49c-.86.94-2.16,1.76-3.35,1.3-.58-.22-1.06-.72-1.68-.76-.39,0-.78.15-1.18.1-.72-.09-1-.79-1.44-1.3a2.6,2.6,0,0,0-1.72-1.1c-1.46-.32-1.86-.79-2.44-2.19l-.06-.18Z" fill="#d1d3d4"/><path d="M195.35,168.15c.1-.26-2.63.26-2.18,1.07S195,169.14,195.35,168.15Z" fill="#d1d3d4"/><path d="M198.7,169.87c0-.24-2.74,1.81-1.68,2.23S198.87,170.81,198.7,169.87Z" fill="#d1d3d4"/><path d="M202.9,170.44s-.52,1.86.47,1.84S203.52,171.42,202.9,170.44Z" fill="#d1d3d4"/><path d="M204,179.6c.13-1.57,0-3.38-1.24-4.36a3.65,3.65,0,0,0-3.58-.3,10.82,10.82,0,0,0-3.05,2.17,9.14,9.14,0,0,0-2.6-3.32,3.15,3.15,0,0,0-3.91.11c-.57.61-1,1.62-1.81,1.62-.6,0-1-.56-1.38-1-1.78-2.47-4.12-4.72-7.07-5.48s-6.52.37-7.79,3.13c-.9,1.94-.53,4.22,0,6.29a28.44,28.44,0,0,0,4.08,9.51,15.51,15.51,0,0,0,8.16,6.14c3.59,1,7.44.42,11.1-.4C201.47,192.21,203.56,185.78,204,179.6Z" fill="#ff6461"/><path d="M188,195.11a15.41,15.41,0,0,1-4.27-.56,16.06,16.06,0,0,1-8.43-6.33,28.38,28.38,0,0,1-4.15-9.68c-.53-2.09-.94-4.52,0-6.62,1.44-3.12,5.38-4.18,8.37-3.41,2.67.7,5.14,2.6,7.34,5.67.31.43.63.84,1,.84h0c.32,0,.57-.31.94-.82a6.51,6.51,0,0,1,.51-.64,3.64,3.64,0,0,1,4.55-.18,8.4,8.4,0,0,1,2.45,2.94,9.78,9.78,0,0,1,2.73-1.84,4.13,4.13,0,0,1,4.08.37c1.14.91,1.61,2.47,1.43,4.79-.65,8.37-3.85,13.26-9.5,14.52A33,33,0,0,1,188,195.11Zm-10.43-25.84a5.89,5.89,0,0,0-5.48,3.07c-.84,1.82-.46,4,0,6a27.62,27.62,0,0,0,4,9.34,15,15,0,0,0,7.9,5.94c3.47,1,7.26.4,10.85-.4,5.16-1.15,8.1-5.73,8.71-13.62h0c.16-2-.19-3.24-1-3.93a3.17,3.17,0,0,0-3.08-.23,10.5,10.5,0,0,0-2.91,2.08.48.48,0,0,1-.41.12.52.52,0,0,1-.36-.25,8.73,8.73,0,0,0-2.44-3.14,2.63,2.63,0,0,0-3.26,0,4.63,4.63,0,0,0-.43.54,2.27,2.27,0,0,1-1.75,1.23h0a2.39,2.39,0,0,1-1.79-1.25c-2.06-2.88-4.35-4.66-6.78-5.29A7.09,7.09,0,0,0,177.54,169.27Z" fill="#231f20"/><circle cx="210.89" cy="182.79" r="11.6" fill="#fff"/><path d="M210.89,194.89a12.1,12.1,0,1,1,12.1-12.1A12.12,12.12,0,0,1,210.89,194.89Zm0-23.2a11.1,11.1,0,1,0,11.1,11.1A11.11,11.11,0,0,0,210.89,171.69Z" fill="#231f20"/><path d="M210.89,193.39a10.6,10.6,0,1,1,10.6-10.6A10.61,10.61,0,0,1,210.89,193.39Zm0-20.2a9.6,9.6,0,1,0,9.6,9.6A9.6,9.6,0,0,0,210.89,173.19Z" fill="#d1d3d4"/><path d="M205.59,183.13c.6-2.18,3.6-.53,3.6-.53s-1.95-4.25-3.23-4.46-4,1.23-4.49,4.39c-.43,3,1.1,4.4,3.52,4.2,1.86-.15,3.88-2.42,3.88-2.42S205.08,185,205.59,183.13Zm-.37-3c.52-.29,1.1.8,1.1.8C205.06,180.81,204.7,180.4,205.22,180.1Zm-1.73,2.46c.27-.47,1.44.23,1.44.23C203.79,183.24,203.23,183,203.49,182.56Zm-.24,1.53c.11-.51,1.46-.09,1.46-.09C203.75,184.68,203.14,184.6,203.25,184.09Zm.9,1.36c-.23-.48,1.21-.67,1.21-.67C205,185.75,204.38,185.94,204.15,185.45Zm.14-4.44c.46-.36,1.24.64,1.24.64C204.27,181.73,203.83,181.37,204.29,181Z" fill="#d1d3d4"/><path d="M212.4,184s1.64,2.54,3.51,3c2.45.56,4.3-.59,4.43-3.6.14-3.19-2.41-5-3.77-5s-4.17,3.91-4.17,3.91,3.39-1.17,3.6,1.07C216.17,185.24,212.4,184,212.4,184Zm3.28-3s.8-1,1.28-.62S217,181.15,215.68,181.05Zm1.06,2.07s1.34-.51,1.52,0S217.82,183.74,216.74,183.12Zm0,1.23s1.47-.21,1.48.31S217.59,185.16,216.73,184.35Zm-.82.67s1.44.4,1.12.85S216.15,186,215.91,185Zm.43-3.11s1-.87,1.4-.44S217.62,182.18,216.34,181.91Z" fill="#d1d3d4"/><path d="M210.74,187.88c-2.09.35-1.47-2.84-1.47-2.84s-3.21,3.34-3,4.5,3.25,3.16,6.17,2.29c2.76-.82,3.52-2,2.68-4-.65-1.51-4.21-3.2-4.21-3.2S212.5,187.58,210.74,187.88Zm-2.57,1.51c-.41-.32.4-1.24.4-1.24C208.83,189.25,208.58,189.72,208.17,189.39Zm2.65.49c-.49,0-.2-1.31-.2-1.31C211.33,189.36,211.31,189.91,210.82,189.88Zm1.41-.41c-.48.12-.48-1.2-.48-1.2C212.61,188.82,212.72,189.36,212.23,189.47Zm1-1.3c-.37.38-.94-.76-.94-.76C213.23,187.38,213.56,187.78,213.19,188.17Zm-4,1.65c-.45-.25.22-1.31.22-1.31C209.86,189.55,209.67,190.06,209.23,189.82Z" fill="#d1d3d4"/><path d="M211.8,181.1s3.32-2.32,3.88-3.95c.72-2.13-1-2.73-3.9-3.38-3.05-.7-5,1.29-5.09,2.53s3.44,4.49,3.44,4.49-.87-3.3,1.29-3.08C213.24,177.89,211.8,181.1,211.8,181.1Zm-2.62-3.51s-.89-.91-.5-1.28S209.37,176.41,209.18,177.59Zm2.07-.59s-.39-1.32.11-1.39S211.92,176.11,211.25,177Zm1.18.22s-.1-1.38.41-1.29S213.27,176.59,212.43,177.22Zm.58.86s.49-1.24.9-.86S214,178.05,213,178.08Zm-2.95-.94s-.76-1.06-.32-1.35S210.41,176,210.06,177.14Z" fill="#d1d3d4"/><path d="M147.92,176.1c-.21-1.1-.28-2.86,1-3.43s2.47.76,3.71,0c.68-.4,1-1.21,1.44-1.84a3.81,3.81,0,0,1,5-.85c.62.42,1.11,1,1.76,1.41a4,4,0,0,0,3.92-.18c1.57-.93,1.82-2.47,2.94-3.6s3.36-.63,4.52.13,2.07,1.94,3.19,2.81c1.66,1.29,3.74,1.89,5.69,2.69,2.1.86,3.76,1.87,4.46,4.11.59,1.88.23,4.22,1.7,5.75a20.25,20.25,0,0,0,1.62,1.28,4.76,4.76,0,0,1,.28,6.67c-1.56,1.6-4.09,1.84-6.28,1.39s-4.22-1.48-6.38-2.08c-4-1.1-8-.26-12,0-4.2.3-8.57-.14-12-3.07a9.87,9.87,0,0,1-1.79-2.12C148.86,182.49,148.51,179.26,147.92,176.1Z" fill="#ff6461"/><path d="M184.76,193.13a10.18,10.18,0,0,1-2-.21,26.83,26.83,0,0,1-3.72-1.17c-.88-.33-1.78-.67-2.69-.92-3-.83-6.13-.51-9.17-.2-.9.09-1.8.18-2.7.25-5.41.38-9.32-.62-12.3-3.18a10.39,10.39,0,0,1-1.88-2.21c-1.6-2.45-2.1-5.27-2.57-8l-.24-1.32h0c-.37-2,.07-3.39,1.21-3.92a2.89,2.89,0,0,1,2.07,0,1.94,1.94,0,0,0,1.6,0,3,3,0,0,0,.89-1.07c.13-.22.27-.44.42-.65a4.28,4.28,0,0,1,5.62-.95,7.18,7.18,0,0,1,.84.69,5.84,5.84,0,0,0,.9.71,3.48,3.48,0,0,0,3.46-.19,5,5,0,0,0,1.72-2,8.11,8.11,0,0,1,1.13-1.56c1.35-1.35,3.83-.76,5.09.07a13.35,13.35,0,0,1,1.88,1.62,15,15,0,0,0,1.33,1.21,15.93,15.93,0,0,0,4.21,2.09q.69.25,1.38.54c2.3.94,4,2,4.72,4.38a14,14,0,0,1,.4,2.13,5.79,5.79,0,0,0,1.19,3.45,5.25,5.25,0,0,0,.88.71c.24.18.49.35.71.54a5.22,5.22,0,0,1,.31,7.33A6.46,6.46,0,0,1,184.76,193.13ZM172,189.4a16.94,16.94,0,0,1,4.57.57c.94.26,1.87.61,2.76.94a25.32,25.32,0,0,0,3.59,1.13c2.42.5,4.61,0,5.87-1.26a4.1,4.1,0,0,0,1.1-3.06,4.2,4.2,0,0,0-1.35-3c-.21-.17-.43-.33-.65-.49a6.37,6.37,0,0,1-1-.82,6.55,6.55,0,0,1-1.43-4,11.67,11.67,0,0,0-.37-2c-.63-2-2.07-3-4.2-3.83l-1.36-.53a16.49,16.49,0,0,1-4.44-2.22,17.19,17.19,0,0,1-1.41-1.27,11.07,11.07,0,0,0-1.74-1.51c-1-.68-3-1.13-4-.19a6.92,6.92,0,0,0-1,1.39,5.66,5.66,0,0,1-2,2.27,4.38,4.38,0,0,1-4.36.19,5.7,5.7,0,0,1-1-.82,8,8,0,0,0-.75-.61,3.35,3.35,0,0,0-4.4.75,5.79,5.79,0,0,0-.38.58,3.58,3.58,0,0,1-1.2,1.37,2.75,2.75,0,0,1-2.29.07,2.06,2.06,0,0,0-1.45-.09c-1,.49-.85,2.22-.71,2.94l.24,1.33c.48,2.76.94,5.37,2.44,7.66a9.14,9.14,0,0,0,1.71,2c2.79,2.39,6.49,3.34,11.66,3,.89-.06,1.78-.15,2.67-.24A47.26,47.26,0,0,1,172,189.4Z" fill="#231f20"/><path d="M171.82,170.69c7.3,2.75,11.82,8.7,10.09,13.29s-8.93,8.88-17.27,5.74-10.9-11.13-9.17-15.71S164.52,167.94,171.82,170.69Z" fill="#231f20"/><path d="M170.37,191.33a16.76,16.76,0,0,1-5.92-1.11,15.69,15.69,0,0,1-8.65-7.58,11.38,11.38,0,0,1-.84-8.82c.91-2.4,3.21-4.09,6.49-4.75A19.49,19.49,0,0,1,172,170.19h0c7.57,2.85,12.23,9.12,10.4,14a11.43,11.43,0,0,1-6.45,6.08A14.72,14.72,0,0,1,170.37,191.33Zm-5.78-21.49a14.64,14.64,0,0,0-2.93.28c-2.9.59-4.92,2-5.69,4.08a10.27,10.27,0,0,0,.79,8,15.33,15.33,0,0,0,18.79,7.09,10.32,10.32,0,0,0,5.86-5.46c1.62-4.3-2.77-9.95-9.78-12.6h0A20.26,20.26,0,0,0,164.59,169.84Z" fill="#231f20"/><ellipse cx="168.69" cy="178.99" rx="8.88" ry="14.13" transform="translate(-58.32 273.67) rotate(-69.34)" fill="#fff"/><path d="M172.79,189.18a21.34,21.34,0,0,1-7.41-1.41,19.58,19.58,0,0,1-8.66-6.13c-2-2.65-2.62-5.42-1.72-7.81s3.19-4.06,6.45-4.72A19.54,19.54,0,0,1,172,170.22h0c7.54,2.85,12.2,9.1,10.38,13.94-.9,2.38-3.19,4.06-6.46,4.72A15.9,15.9,0,0,1,172.79,189.18Zm-8.2-19.38a14.73,14.73,0,0,0-2.94.29c-2.91.59-4.94,2-5.72,4.09s-.21,4.49,1.59,6.86a20,20,0,0,0,18.2,6.86c2.92-.59,4.95-2,5.72-4.1,1.63-4.32-2.77-10-9.8-12.64h0A20.06,20.06,0,0,0,164.59,169.8Z" fill="#231f20"/><ellipse cx="168.69" cy="178.99" rx="5.96" ry="9.49" transform="translate(-58.32 273.67) rotate(-69.34)" fill="#d1d3d4"/><path d="M190.93,196.47a4,4,0,0,1-.34.56h-.81q-3,0-6-.1c-15.84-.57-28.89-3.35-34.19-7.08a33.47,33.47,0,0,1-2.15-5.18c-.11-.3-.2-.6-.29-.91a4.44,4.44,0,0,1-.29-2.21,2.93,2.93,0,0,1,2.91-2.18,4.5,4.5,0,0,1,3,1.32,5.4,5.4,0,0,1,.41.42c.49.56,1.07,1.27,1.79,1.11s1-1.16,1.43-1.79a2.68,2.68,0,0,1,3.57-.26,7.85,7.85,0,0,1,2.26,3.18c.4.81,1.12,1.78,2,1.47.48-.16.73-.67,1-1.06,1.38-1.71,4.37-1.1,5.67.67.76,1,1.51,2.54,2.77,2.33a2.29,2.29,0,0,0,.91-.42c1.58-1,3.16-2.42,5.05-2.36,2.35.08,4,2.29,5.52,4.05a39.34,39.34,0,0,0,3.36,2.85C190.45,192.45,192.05,194.26,190.93,196.47Z" fill="#ff6461"/><path d="M189.78,197.48c-2,0-4,0-6-.1-15.76-.57-28.95-3.31-34.43-7.16a.73.73,0,0,1-.14-.16,36.23,36.23,0,0,1-2.18-5.25c-.1-.3-.2-.61-.29-.91a4.9,4.9,0,0,1-.3-2.44,3.4,3.4,0,0,1,3.35-2.54h0a5,5,0,0,1,3.31,1.44l.44.46.07.08c.4.46.86,1,1.28.88s.48-.37.74-.88a4.65,4.65,0,0,1,.44-.74c.95-1.28,2.93-1.21,4.17-.35a8.15,8.15,0,0,1,2.42,3.35c.12.24.75,1.48,1.41,1.24a1.57,1.57,0,0,0,.61-.6c.08-.11.15-.22.24-.33a3.41,3.41,0,0,1,2.73-1.17,4.76,4.76,0,0,1,3.65,1.87c.14.18.27.37.4.57.71,1,1.22,1.7,1.94,1.58a2,2,0,0,0,.73-.35l.81-.55c1.37-.95,2.81-1.93,4.51-1.88,2.26.07,3.86,1.91,5.27,3.54l.57.65a19.73,19.73,0,0,0,2.09,1.82c.4.32.82.64,1.22,1,1.94,1.63,3.74,3.63,2.47,6.14a4.83,4.83,0,0,1-.37.62.45.45,0,0,1-.36.19Zm.81-.45h0ZM150,189.55c5.39,3.72,18.34,6.38,33.85,6.93,2,.07,4,.11,6,.11h.57l.18-.32h0c1-2-.49-3.58-2.24-5.05-.4-.34-.81-.66-1.21-1a18.43,18.43,0,0,1-2.2-1.93l-.58-.66c-1.35-1.56-2.75-3.17-4.62-3.23h-.11c-1.38,0-2.64.88-3.86,1.73l-.82.56a2.8,2.8,0,0,1-1.09.49c-1.32.22-2.15-1-2.82-2-.12-.19-.25-.37-.38-.54a3.89,3.89,0,0,0-2.95-1.51,2.4,2.4,0,0,0-2,.85l-.21.28a2.21,2.21,0,0,1-1,.92c-.89.32-1.84-.31-2.52-1.7a7.28,7.28,0,0,0-2.12-3,2.25,2.25,0,0,0-2.95.15,5.07,5.07,0,0,0-.36.62c-.28.56-.61,1.19-1.33,1.35-1,.21-1.65-.59-2.16-1.17l-.07-.08a4.59,4.59,0,0,0-.37-.39,4.14,4.14,0,0,0-2.71-1.21h0a2.52,2.52,0,0,0-2.46,1.82,4.08,4.08,0,0,0,.27,2c.09.3.19.59.29.89A33.7,33.7,0,0,0,150,189.55Z" fill="#231f20"/><path d="M224.39,190.36a6.32,6.32,0,0,1-1.6,2.69,89.1,89.1,0,0,1-16.58,3.15,154.7,154.7,0,0,1-15.62.83h-.81q-3,0-6-.1c.72-.79,1.41-1.59,2-2.43.81-1.07,1.48-2.88,2.72-3.62a2.42,2.42,0,0,1,1.51-.32c1.18.13,2.5,1.24,3.44.16a5,5,0,0,0,.82-2c.66-2.43,3.44-9.45,7-6.81,1.43,1.06,1.45,3.72,3.35,4,1.39.22,2.72-1.41,4.11-.64.84.47,1,1.66,1.73,2.29a2.77,2.77,0,0,0,1.51.55,6.6,6.6,0,0,0,2.79-.33c1.61-.57,3-1.78,4.67-2.08C222.31,185.23,225.2,187.39,224.39,190.36Z" fill="#ff6461"/><path d="M189.78,197.48c-2,0-4,0-6-.1a.47.47,0,0,1-.4-.28.45.45,0,0,1,.09-.47c.83-.91,1.47-1.68,2-2.4a12.27,12.27,0,0,0,.72-1.15,7,7,0,0,1,2.12-2.59,2.83,2.83,0,0,1,1.78-.37,5.41,5.41,0,0,1,1.24.33c.88.31,1.4.47,1.83,0a4.55,4.55,0,0,0,.69-1.72c0-.16,1.82-6.58,5-7.67a2.84,2.84,0,0,1,2.73.52,5.32,5.32,0,0,1,1.43,2.05c.45.94.85,1.75,1.72,1.89a3.18,3.18,0,0,0,1.55-.38,2.9,2.9,0,0,1,2.71-.21,3.26,3.26,0,0,1,1.15,1.39,3.25,3.25,0,0,0,.65.95,2.26,2.26,0,0,0,1.27.44,5.84,5.84,0,0,0,2.59-.31,12.61,12.61,0,0,0,1.86-.89,9.4,9.4,0,0,1,2.88-1.2,5.12,5.12,0,0,1,4.57,1.47,3.85,3.85,0,0,1,.86,3.72h0a6.88,6.88,0,0,1-1.7,2.88.67.67,0,0,1-.2.12,90.32,90.32,0,0,1-16.66,3.16,156.71,156.71,0,0,1-15.67.84Zm-5-1c1.68.05,3.35.08,5,.08h.8a151.75,151.75,0,0,0,15.58-.83,89.73,89.73,0,0,0,16.38-3.09,5.71,5.71,0,0,0,1.42-2.42,3,3,0,0,0-.66-2.87,4.21,4.21,0,0,0-3.76-1.2,8.62,8.62,0,0,0-2.6,1.1,13.06,13.06,0,0,1-2,1,7,7,0,0,1-3,.35,3.1,3.1,0,0,1-1.76-.65,4,4,0,0,1-.86-1.2,2.47,2.47,0,0,0-.8-1c-.59-.32-1.21-.06-1.92.25a3.7,3.7,0,0,1-2,.44c-1.34-.21-1.89-1.36-2.39-2.38a4.59,4.59,0,0,0-1.15-1.72,2,2,0,0,0-1.91-.39c-2,.68-3.74,4.63-4.37,7a5.39,5.39,0,0,1-.91,2.17c-.85,1-1.93.58-2.8.27a4.7,4.7,0,0,0-1-.28,1.92,1.92,0,0,0-1.23.25,6.17,6.17,0,0,0-1.81,2.27,14,14,0,0,1-.78,1.24C185.8,195.31,185.34,195.88,184.78,196.51Zm39.61-6.15h0Z" fill="#231f20"/><path d="M236.32,179.07a62.4,62.4,0,0,1-3.89,6.6,33.11,33.11,0,0,1-3.42,3.85,10.58,10.58,0,0,0-1.17,1.56l-.33.17a35.56,35.56,0,0,1-4.72,1.8,89.1,89.1,0,0,1-16.58,3.15c-3.37.36-7,.61-10.72.74,2.89-3.59,9-6.72,10.67-9.79.54-1,.91-2.07,1.51-3a3.9,3.9,0,0,1,2.63-1.93c.82-.11,1.67.18,2.49,0,1.42-.29,2.37-1.87,3.82-2,1.25-.12,2.42.91,3.66.71a4.6,4.6,0,0,0,2.37-1.73.39.39,0,0,1,.08-.1c.72-.75,1.83-1.41,2.75-.93.52.27.82.85,1.31,1.17,1.27.83,2.89-.4,3.72-1.68.72-1.13,1.51-2.79,3-3a4,4,0,0,1,3.34,1.39C237.31,177,236.82,178.12,236.32,179.07Z" fill="#ff6461"/><path d="M195.49,197.38a.45.45,0,0,1-.4-.24.48.48,0,0,1,0-.48,32.6,32.6,0,0,1,5.46-4.86c2.22-1.71,4.32-3.32,5.17-4.87.21-.4.4-.82.6-1.23a14.09,14.09,0,0,1,.93-1.81,4.38,4.38,0,0,1,2.94-2.13,5.3,5.3,0,0,1,1.26,0,4,4,0,0,0,1.2,0,4.3,4.3,0,0,0,1.63-.91,3.49,3.49,0,0,1,4.21-.7,3.54,3.54,0,0,0,1.67.32,3.59,3.59,0,0,0,1.87-1.35l.33-.35c.83-.87,2.14-1.6,3.27-1a3.27,3.27,0,0,1,.83.72,2.76,2.76,0,0,0,.51.47,1.21,1.21,0,0,0,1,.17,4,4,0,0,0,2.13-1.71l.31-.5c.68-1.11,1.52-2.49,3-2.73,1.09-.17,3.21.48,3.8,1.62s.08,2.38-.49,3.47a63.13,63.13,0,0,1-3.92,6.64,22.59,22.59,0,0,1-2.53,2.93l-.93,1a9.72,9.72,0,0,0-1.12,1.5.49.49,0,0,1-.18.17l-.34.16a35.89,35.89,0,0,1-4.78,1.83,90.32,90.32,0,0,1-16.66,3.16c-3.46.37-7.08.62-10.75.74Zm15.21-14.76-.35,0a3.55,3.55,0,0,0-2.3,1.73,12.92,12.92,0,0,0-.87,1.7c-.2.44-.4.87-.63,1.29-.94,1.72-3.11,3.38-5.4,5.15a39.29,39.29,0,0,0-4.64,3.94c3.3-.13,6.54-.37,9.65-.7a88.58,88.58,0,0,0,16.5-3.13,34.64,34.64,0,0,0,4.66-1.78l.21-.1a11.24,11.24,0,0,1,1.15-1.53l.95-1a21.21,21.21,0,0,0,2.44-2.8,63.86,63.86,0,0,0,3.86-6.56h0c.46-.88.88-1.88.49-2.64a3.54,3.54,0,0,0-2.86-1.14c-1.06.17-1.76,1.3-2.37,2.31-.11.18-.21.35-.32.51a4.68,4.68,0,0,1-2.69,2.1,2.09,2.09,0,0,1-1.64-.29,3.18,3.18,0,0,1-.69-.62,2.35,2.35,0,0,0-.59-.52c-.69-.36-1.62.23-2.22.84l-.08.09-.23.25a4.33,4.33,0,0,1-2.39,1.63,4.27,4.27,0,0,1-2.1-.37,4,4,0,0,0-1.59-.35,3.77,3.77,0,0,0-1.78.92,3.84,3.84,0,0,1-3.45,1.09C211.17,182.65,210.93,182.62,210.7,182.62Zm17.14,8.46h0Z" fill="#231f20"/><path d="M191.65,178.15a2.39,2.39,0,0,0-1.81,1.27,1.27,1.27,0,0,1-.2.34c-.24.25-.64.21-1,.26a4.09,4.09,0,0,0-1.71,1,7.35,7.35,0,0,1-2.05,1.09,3.57,3.57,0,0,0,2.59-.47,1.49,1.49,0,0,1,.6-.21c.14,0,.29,0,.44,0a1.85,1.85,0,0,0,1-.55,3.39,3.39,0,0,1,2.09-1,1.54,1.54,0,0,1,1.61,1.36c-.68.23-.45,1.49-1.12,1.75a1.1,1.1,0,0,1-.51.05,4.67,4.67,0,0,0-2.45.66c2,0,4.22-.12,5.71-1.47a1.61,1.61,0,0,0,.64-1.64A5.07,5.07,0,0,0,191.65,178.15Z" fill="#fff"/><path d="M206.69,194.83a.44.44,0,0,1-.12-.87s4.72-1.4,7.09-8.39a.44.44,0,1,1,.84.29c-2.53,7.46-7.49,8.9-7.7,9Z" fill="#231f20"/><path d="M222.49,189.94a.43.43,0,0,1-.36-.18.45.45,0,0,1,.09-.63,93.58,93.58,0,0,0,8-6.56.45.45,0,0,1,.62.65,97.58,97.58,0,0,1-8.1,6.63A.43.43,0,0,1,222.49,189.94Z" fill="#231f20"/><path d="M164.4,195.06a.44.44,0,0,1-.29-.11,52.26,52.26,0,0,1-8.65-10.08.46.46,0,0,1,.14-.62.45.45,0,0,1,.62.14,50.27,50.27,0,0,0,8.47,9.88.45.45,0,0,1,.05.63A.44.44,0,0,1,164.4,195.06Z" fill="#231f20"/><path d="M177.39,193.47a.43.43,0,0,1-.34-.16c-1.71-2-1-3.06-1-3.17a.45.45,0,0,1,.74.5c0,.05-.3.69.89,2.09a.44.44,0,0,1,0,.63A.48.48,0,0,1,177.39,193.47Z" fill="#231f20"/><path d="M186.47,174.48s-3.33-5.57-2.66-8.34" fill="#ff6461"/><path d="M186.47,174.92a.48.48,0,0,1-.39-.21c-.14-.24-3.41-5.76-2.71-8.67a.44.44,0,0,1,.54-.33.43.43,0,0,1,.33.53c-.61,2.56,2.58,7.95,2.61,8a.44.44,0,0,1-.15.61A.53.53,0,0,1,186.47,174.92Z" fill="#231f20"/><path d="M222.93,173a2.6,2.6,0,0,1,2.22.57c.37.4.72,1.06,1.25.92a1.43,1.43,0,0,0,.39-.23c1.11-.73,2.58,0,3.71.68a8.45,8.45,0,0,1-6.45,2.1l2.66-1.19-4.18-1.83a6.41,6.41,0,0,0-2-.53A11.9,11.9,0,0,1,222.93,173Z" fill="#fff"/><path d="M185.23,172l-3.51-.69a4.26,4.26,0,0,1-1-.29,5.87,5.87,0,0,1-.59-.37c-1.13-.72-3.4-1.31-4.49-.38a7.55,7.55,0,0,0,3.53,1.49C180.38,171.94,184.24,172.66,185.23,172Z" fill="#fff"/><path d="M160.93,227s20.91-15.16,22.31-12.72-4.94,9-4.94,9,10.21,3.92,14,2.8,15.79-11.26,20.22-10.7-1.74,9.72-9.25,13.28" fill="#fff"/><path d="M203.29,229.25a.59.59,0,0,1-.25-1.12c6-2.87,10.74-9.13,10.37-11.4,0-.3-.2-.67-.95-.76-2.46-.31-8.11,3.4-12.62,6.38-3.11,2.06-5.79,3.84-7.35,4.3-4,1.17-14-2.65-14.41-2.81a.62.62,0,0,1-.36-.43.6.6,0,0,1,.15-.54c2.51-2.6,5.67-6.91,4.86-8.32-1.38-.61-12.22,6.21-21.46,12.9a.57.57,0,0,1-.82-.13.58.58,0,0,1,.13-.83c3.17-2.3,19.18-13.76,22.42-13.06a1.1,1.1,0,0,1,.76.53c1.35,2.34-2.64,7.12-4.42,9.07,2.49.89,9.84,3.36,12.81,2.48,1.39-.41,4.13-2.22,7-4.14,4.93-3.26,10.49-6.94,13.43-6.58a2.05,2.05,0,0,1,2,1.76c.53,3.28-5.25,9.9-11,12.65A.6.6,0,0,1,203.29,229.25Z" fill="#231f20"/><path d="M295.2,141.41c-.93-.38-9.38,5.44-14.26,3s6.57-9.76,6.57-9.76-12.95,10.33-18.21,7.7,6.2-9.95,6.95-9.95-8.64,4.88-13,1.88,7.89-6.57,7.89-6.57-9.95-1.32-9.95-5.63,29,1.84,34,9.17,3.87,16.35,3.87,16.35" fill="#fff"/><path d="M299.15,148.2h-.08a.59.59,0,0,1-.51-.66c0-.09,1.11-8.9-3.76-15.95-4.22-6.1-26.78-11.76-32.23-10.06-.28.09-.75.28-.75.56,0,3.11,6.81,4.69,9.44,5a.6.6,0,0,1,.51.54.6.6,0,0,1-.43.62c-3.32,1-8.12,3-8.37,4.52,0,.12-.08.47.66,1,2.59,1.8,7.3.46,10.06-.67a7.93,7.93,0,0,1,2.56-1.31.63.63,0,0,1,.28,1.2,13.47,13.47,0,0,1-2.33,1.19c-2.25,1.54-5.48,4.23-5.67,6.12,0,.4,0,1,1,1.5,3,1.52,9.52-2,14-5a40.76,40.76,0,0,1,3.6-2.62.6.6,0,0,1,.8.16.61.61,0,0,1-.11.81c-.17.13-1.54,1.21-3.52,2.56-2.17,1.78-4.11,3.82-4,5.12,0,.28.13.7.89,1.08,3.19,1.6,8.24-.72,11.26-2.11,1.85-.85,2.47-1.1,3-.91a.59.59,0,0,1-.36,1.13,13.56,13.56,0,0,0-2.1.86c-3.22,1.48-8.59,4-12.3,2.09a2.41,2.41,0,0,1-1.53-2.07,4.31,4.31,0,0,1,.94-2.54c-3.89,2.17-8.33,3.9-11,2.55a2.61,2.61,0,0,1-1.62-3.08c.33-1.41,1.75-3,3.37-4.47-2.7.68-5.75.88-7.83-.57a2.16,2.16,0,0,1-1.16-2.15c.33-2,4.3-3.78,7-4.75-3.08-.71-8.15-2.39-8.15-5.78,0-.55.27-1.28,1.58-1.69,5.82-1.81,29,4,33.55,10.52,5.14,7.43,4,16.39,4,16.77A.59.59,0,0,1,299.15,148.2ZM295,142h0Z" fill="#231f20"/><path d="M130.84,219.53H112.49a.6.6,0,0,1,0-1.19h18.35a.6.6,0,0,1,0,1.19Z" fill="#231f20"/><path d="M204.47,74a9.59,9.59,0,0,1-5.23-1.5.58.58,0,0,1-.14-.82.59.59,0,0,1,.83-.14,9,9,0,0,0,9.38,0,.6.6,0,0,1,.81.24.59.59,0,0,1-.24.8A11.1,11.1,0,0,1,204.47,74Z" fill="#231f20"/><path d="M222.81,74a9.51,9.51,0,0,1-5.23-1.5.59.59,0,1,1,.68-1,9,9,0,0,0,9.39,0,.59.59,0,0,1,.57,1A11.1,11.1,0,0,1,222.81,74Z" fill="#231f20"/><path d="M206.51,67.41a.61.61,0,0,1-.58-.46.6.6,0,0,1,.45-.71c10.55-2.51,13.14-15.4,13.16-15.53a.58.58,0,0,1,.69-.47.59.59,0,0,1,.48.69c0,.14-2.77,13.78-14.06,16.46Z" fill="#231f20"/></g></svg>