<svg width="69" height="69" viewBox="0 0 69 69" fill="none" xmlns="http://www.w3.org/2000/svg">
<circle cx="34.0457" cy="34.0457" r="34.0457" fill="#FF6461"/>
<path d="M38.7739 18.3842C36.2781 14.5006 31.9199 11.9279 26.9606 11.9279C19.2106 11.9279 12.928 18.2106 12.928 25.9605C12.928 30.1461 14.7613 33.9029 17.6677 36.4739C17.6507 36.8043 17.642 37.1369 17.642 37.4715C17.642 48.0671 26.2315 56.6566 36.8272 56.6566C47.4228 56.6566 56.0122 48.0671 56.0122 37.4715C56.0124 27.5331 48.4553 19.3598 38.7739 18.3842Z" fill="#E6E6E6"/>
<path d="M26.961 32.9774C30.8361 32.9774 33.9775 29.836 33.9775 25.9609C33.9775 22.0858 30.8361 18.9445 26.961 18.9445C23.086 18.9445 19.9446 22.0858 19.9446 25.9609C19.9446 29.836 23.086 32.9774 26.961 32.9774Z" fill="#FFCC75"/>
<path d="M36.8272 57.5847C31.4547 57.5847 26.4039 55.4925 22.6051 51.6937C18.8063 47.8949 16.7141 42.844 16.7141 37.4715C16.7141 37.2717 16.7171 37.0701 16.7231 36.8684C13.7158 34.0444 12 30.0945 12 25.9605C12.0001 17.7113 18.7115 11 26.9606 11C31.928 11 36.5103 13.4249 39.3075 17.5103C44.0704 18.0966 48.4605 20.3698 51.71 23.9424C55.0828 27.6505 56.9402 32.4552 56.9402 37.4716C56.9402 42.8441 54.8481 47.895 51.0492 51.6938C47.2505 55.4925 42.1997 57.5847 36.8272 57.5847ZM26.9606 12.8559C19.7347 12.8559 13.856 18.7346 13.856 25.9605C13.856 29.7117 15.4694 33.2904 18.2826 35.7789C18.4941 35.966 18.6089 36.2393 18.5945 36.5214C18.5783 36.8375 18.5701 37.1571 18.5701 37.4715C18.5701 47.5386 26.7601 55.7286 36.8272 55.7286C46.8942 55.7286 55.0843 47.5386 55.0843 37.4715C55.0843 28.0586 48.0323 20.2498 38.6807 19.3075C38.3993 19.2791 38.146 19.1239 37.9931 18.886C35.5667 15.1101 31.4425 12.8559 26.9606 12.8559Z" fill="black"/>
<path d="M26.9606 33.9048C22.5801 33.9048 19.0164 30.3411 19.0164 25.9606C19.0164 21.5801 22.5801 18.0163 26.9606 18.0163C31.341 18.0163 34.9047 21.5801 34.9047 25.9606C34.9047 30.3411 31.3411 33.9048 26.9606 33.9048ZM26.9606 19.8723C23.6035 19.8723 20.8723 22.6035 20.8723 25.9606C20.8723 29.3177 23.6035 32.0489 26.9606 32.0489C30.3177 32.0489 33.0488 29.3177 33.0488 25.9606C33.0488 22.6035 30.3177 19.8723 26.9606 19.8723Z" fill="black"/>
<path d="M36.8272 54.1511C36.3148 54.1511 35.8992 53.7357 35.8992 53.2232C35.8992 52.7106 36.3148 52.2952 36.8272 52.2952C39.9383 52.2952 42.9157 51.3423 45.4374 49.5396C45.8544 49.2415 46.4339 49.3381 46.732 49.7549C47.0301 50.1719 46.9337 50.7515 46.5168 51.0495C43.6784 53.0786 40.3278 54.1511 36.8272 54.1511Z" fill="black"/>
<path d="M48.6024 48.8616C48.3831 48.8616 48.163 48.7843 47.9861 48.6271C47.6032 48.2867 47.5687 47.7001 47.9092 47.317C48.207 46.9821 48.4931 46.6293 48.7596 46.2687C49.0641 45.8565 49.6452 45.7693 50.0573 46.0736C50.4695 46.3782 50.5569 46.9592 50.2524 47.3715C49.9529 47.777 49.6312 48.1736 49.2963 48.5503C49.113 48.7564 48.8582 48.8616 48.6024 48.8616Z" fill="black"/>
</svg>
