<svg width="69" height="69" viewBox="0 0 69 69" fill="none" xmlns="http://www.w3.org/2000/svg">
<circle cx="34.0457" cy="34.0457" r="34.0457" fill="#FF6461"/>
<path d="M40.3196 23.0008C32.6854 23.0008 21.7528 29.3135 17.2363 32.3793C15.7138 30.5926 12.9315 28.0526 10.0007 25.8029V42.9255C12.9315 40.6758 15.7137 38.1358 17.2363 36.3491C21.7528 39.4149 32.6854 45.7276 40.3196 45.7276C52.1429 45.7276 58.2329 34.3642 58.2329 34.3642C58.2329 34.3642 52.1428 23.0008 40.3196 23.0008Z" fill="#6DA8D6"/>
<path d="M48.8047 32.5776C49.6269 32.5776 50.2934 31.9111 50.2934 31.0889C50.2934 30.2667 49.6269 29.6002 48.8047 29.6002C47.9825 29.6002 47.316 30.2667 47.316 31.0889C47.316 31.9111 47.9825 32.5776 48.8047 32.5776Z" fill="#4D4D4D"/>
<path d="M59.1149 33.8914C59.0495 33.7697 57.4804 30.8744 54.3978 27.9557C50.2828 24.0594 45.4146 22 40.3194 22C36.831 22 32.4134 23.2218 27.1895 25.6316C22.7858 27.663 19.123 29.9401 17.4058 31.0641C15.7551 29.2746 13.2338 27.0233 10.6098 25.0091C10.3075 24.7772 9.89989 24.7369 9.55806 24.9053C9.21644 25.074 9 25.4219 9 25.8029V42.9254C9 43.3065 9.21644 43.6544 9.55816 43.823C9.89989 43.9915 10.3077 43.9513 10.6099 43.7192C13.2338 41.705 15.7552 39.4536 17.4059 37.6642C19.1231 38.7882 22.786 41.0653 27.1896 43.0966C32.4135 45.5065 36.831 46.7283 40.3195 46.7283C45.4146 46.7283 50.2828 44.6688 54.3979 40.7725C57.4805 37.8539 59.0495 34.9587 59.115 34.8368C59.2732 34.5416 59.2732 34.1868 59.1149 33.8914ZM52.9761 39.3625C51.3226 40.9199 49.5773 42.1414 47.7502 43.0229C46.8924 42.4957 44.393 40.5929 43.7 36.0012C43.6177 35.4548 43.1079 35.0788 42.5612 35.1611C42.0148 35.2435 41.6386 35.7534 41.7211 36.2999C42.3327 40.3525 44.2014 42.6823 45.5879 43.8934C43.892 44.4473 42.1338 44.727 40.3195 44.727C33.2468 44.727 22.8352 38.9404 17.7982 35.5212C17.6268 35.4048 17.4311 35.3484 17.2367 35.3484C16.9523 35.3484 16.6712 35.4693 16.4745 35.7001C15.2724 37.1109 13.2268 39.0297 11.0013 40.8539V37.4986H12.0848C12.6374 37.4986 13.0854 37.0507 13.0854 36.498C13.0854 35.9453 12.6374 35.4973 12.0848 35.4973H11.0013V33.2312H12.0848C12.6374 33.2312 13.0854 32.7833 13.0854 32.2306C13.0854 31.6779 12.6374 31.2299 12.0848 31.2299H11.0013V27.8747C13.2268 29.6989 15.2723 31.6177 16.4746 33.0284C16.8057 33.417 17.376 33.4941 17.7983 33.2074C22.8353 29.7882 33.2468 24.0016 40.3196 24.0016C44.9387 24.0016 49.197 25.8064 52.9762 29.3659C55.1358 31.4 56.5175 33.4613 57.0729 34.3642C56.517 35.2677 55.1353 37.3288 52.9761 39.3625Z" fill="black"/>
<path d="M42.6067 31.38C42.055 31.3518 41.5833 31.7732 41.5534 32.3251C41.5383 32.604 41.5283 32.8836 41.5236 33.1562C41.5142 33.7087 41.9547 34.1644 42.5072 34.1737C42.513 34.1738 42.5186 34.1738 42.5244 34.1738C43.0691 34.1738 43.5154 33.7369 43.5247 33.1901C43.5289 32.9422 43.538 32.6876 43.5518 32.4333C43.5817 31.8816 43.1585 31.41 42.6067 31.38Z" fill="black"/>
<path d="M48.8048 28.5998C47.4322 28.5998 46.3154 29.7165 46.3154 31.0891C46.3154 32.4617 47.4321 33.5784 48.8048 33.5784C50.1775 33.5784 51.2941 32.4617 51.2941 31.0891C51.2941 29.7165 50.1774 28.5998 48.8048 28.5998ZM48.8048 31.577C48.5357 31.577 48.3168 31.358 48.3168 31.0891C48.3168 30.8201 48.5358 30.6011 48.8048 30.6011C49.0739 30.6011 49.2927 30.8201 49.2927 31.0891C49.2927 31.358 49.074 31.577 48.8048 31.577Z" fill="black"/>
<path d="M37.5666 31.3372L38.3973 30.5066C38.5849 30.319 38.6903 30.0644 38.6903 29.799C38.6903 29.5336 38.5849 29.279 38.3973 29.0914L37.8643 28.5585L38.298 28.1248C38.6888 27.734 38.6888 27.1004 38.298 26.7095C37.9071 26.3188 37.2737 26.3188 36.8827 26.7095L35.7415 27.8508C35.5539 28.0384 35.4484 28.293 35.4484 28.5584C35.4484 28.8238 35.5539 29.0783 35.7415 29.266L36.2744 29.7989L35.4437 30.6295C35.2561 30.8171 35.1506 31.0717 35.1506 31.3371C35.1506 31.6025 35.2561 31.8571 35.4437 32.0447L36.4729 33.0739L35.5926 33.9542C35.2019 34.345 35.2019 34.9786 35.5926 35.3694C35.7881 35.5649 36.0441 35.6625 36.3002 35.6625C36.5563 35.6625 36.8124 35.5649 37.0078 35.3694L38.5957 33.7816C38.7833 33.594 38.8887 33.3394 38.8887 33.074C38.8887 32.8086 38.7833 32.5541 38.5957 32.3664L37.5666 31.3372Z" fill="black"/>
<path d="M29.0316 34.2152L29.5646 33.6823C29.9553 33.2915 29.9553 32.6579 29.5646 32.267C29.1738 31.8762 28.5402 31.8762 28.1493 32.267L26.9088 33.5075C26.518 33.8983 26.518 34.5319 26.9088 34.9228L27.6403 35.6543L26.8096 36.4849C26.4188 36.8757 26.4188 37.5093 26.8096 37.9002C27.005 38.0957 27.2611 38.1933 27.5172 38.1933C27.7732 38.1933 28.0294 38.0957 28.2247 37.9002L29.763 36.3619C30.1538 35.9711 30.1538 35.3375 29.763 34.9466L29.0316 34.2152Z" fill="black"/>
</svg>
