<svg width="69" height="69" viewBox="0 0 69 69" fill="none" xmlns="http://www.w3.org/2000/svg">
<circle cx="34.0457" cy="34.0457" r="34.0457" fill="#FF6461"/>
<path d="M35.1154 41.2631C33.5296 42.8489 33.5296 45.42 35.1154 47.0059C36.7012 48.5917 39.2722 48.5917 40.8581 47.0059C42.4439 45.4201 43.7783 38.3431 43.7783 38.3431C43.7783 38.3431 36.7013 39.6773 35.1154 41.2631Z" fill="#FFCC75"/>
<path d="M32.6986 41.2631C34.2844 42.8489 34.2844 45.42 32.6986 47.0059C31.1128 48.5917 28.5417 48.5917 26.9558 47.0059C25.37 45.4201 24.0357 38.3431 24.0357 38.3431C24.0357 38.3431 31.1127 39.6773 32.6986 41.2631Z" fill="#FFCC75"/>
<path d="M34.9555 33.7594C33.5797 35.1352 33.5797 37.3657 34.9555 38.7414C36.3312 40.1172 38.5617 40.1172 39.9374 38.7414C41.3132 37.3656 42.4706 31.2264 42.4706 31.2264C42.4706 31.2264 36.3311 32.3837 34.9555 33.7594Z" fill="#FFCC75"/>
<path d="M32.8586 33.7594C34.2343 35.1352 34.2343 37.3657 32.8586 38.7414C31.4828 40.1172 29.2523 40.1172 27.8766 38.7414C26.5009 37.3656 25.3434 31.2264 25.3434 31.2264C25.3434 31.2264 31.4829 32.3837 32.8586 33.7594Z" fill="#FFCC75"/>
<path d="M34.9555 26.3002C33.5797 27.676 33.5797 29.9065 34.9555 31.2822C36.3312 32.6579 38.5617 32.6579 39.9374 31.2822C41.3132 29.9064 42.4706 23.7672 42.4706 23.7672C42.4706 23.7672 36.3311 24.9245 34.9555 26.3002Z" fill="#FFCC75"/>
<path d="M32.8586 26.3002C34.2343 27.676 34.2343 29.9065 32.8586 31.2822C31.4828 32.6579 29.2523 32.6579 27.8766 31.2822C26.5008 29.9064 25.3434 23.7672 25.3434 23.7672C25.3434 23.7672 31.4829 24.9245 32.8586 26.3002Z" fill="#FFCC75"/>
<path d="M34.862 19.4393C33.6088 20.6925 33.6088 22.7242 34.862 23.9774C36.1151 25.2306 38.1469 25.2306 39.4001 23.9774C40.6533 22.7242 41.7076 17.1319 41.7076 17.1319C41.7076 17.1319 36.1151 18.1861 34.862 19.4393Z" fill="#FFCC75"/>
<path d="M32.952 19.4393C34.2052 20.6925 34.2052 22.7242 32.952 23.9774C31.6988 25.2306 29.6671 25.2306 28.4139 23.9774C27.1607 22.7242 26.1064 17.1319 26.1064 17.1319C26.1064 17.1319 31.6988 18.1861 32.952 19.4393Z" fill="#FFCC75"/>
<path d="M34.7019 13.7224C33.6589 14.7655 33.6589 16.4566 34.7019 17.4996C35.7449 18.5427 37.4361 18.5427 38.4791 17.4996C39.5222 16.4566 40.3997 11.8018 40.3997 11.8018C40.3997 11.8018 35.745 12.6793 34.7019 13.7224Z" fill="#FFCC75"/>
<path d="M33.1122 13.7224C34.1552 14.7655 34.1552 16.4566 33.1122 17.4996C32.0691 18.5428 30.378 18.5427 29.335 17.4996C28.2918 16.4566 27.4144 11.8018 27.4144 11.8018C27.4144 11.8018 32.0691 12.6793 33.1122 13.7224Z" fill="#FFCC75"/>
<path d="M36.5779 38.68C36.5779 40.1551 35.3821 41.3509 33.907 41.3509C32.432 41.3509 31.2362 40.1551 31.2362 38.68C31.2362 37.2049 33.907 33.2929 33.907 33.2929C33.907 33.2929 36.5779 37.205 36.5779 38.68Z" fill="#FFCC75"/>
<path d="M36.1424 31.7102C36.1424 32.9447 35.1416 33.9456 33.907 33.9456C32.6725 33.9456 31.6716 32.9448 31.6716 31.7102C31.6716 30.4756 33.907 27.2014 33.907 27.2014C33.907 27.2014 36.1424 30.4756 36.1424 31.7102Z" fill="#FFCC75"/>
<path d="M35.782 24.6739C35.782 25.7094 34.9427 26.5489 33.907 26.5489C32.8716 26.5489 32.0321 25.7096 32.0321 24.6739C32.0321 23.6385 33.907 20.8925 33.907 20.8925C33.907 20.8925 35.782 23.6385 35.782 24.6739Z" fill="#FFCC75"/>
<path d="M35.6016 18.11C35.6016 19.0459 34.8429 19.8046 33.907 19.8046C32.9711 19.8046 32.2125 19.0459 32.2125 18.11C32.2125 17.1741 33.907 14.6922 33.907 14.6922C33.907 14.6922 35.6016 17.1741 35.6016 18.11Z" fill="#FFCC75"/>
<path d="M23.3032 37.6107C23.5452 37.3687 23.8913 37.2616 24.2276 37.3253C24.5544 37.3869 25.2327 37.5196 26.0851 37.7137C25.1279 35.4866 24.4777 32.2254 24.3256 31.4182C24.2622 31.0818 24.3691 30.7359 24.6111 30.4938C24.8531 30.2517 25.1995 30.1448 25.5355 30.2084C25.6677 30.2333 25.8662 30.2716 26.1147 30.3224C25.1414 28.094 24.4795 24.7744 24.3257 23.959C24.2623 23.6226 24.3692 23.2767 24.6112 23.0346C24.8532 22.7926 25.1995 22.6855 25.5356 22.7492C25.7535 22.7902 26.1503 22.8677 26.6573 22.9775C25.8021 20.9382 25.2255 18.0489 25.0888 17.3236C25.0254 16.9873 25.1322 16.6413 25.3742 16.3992C25.6163 16.1572 25.9624 16.0501 26.2987 16.1138C26.5312 16.1576 26.9882 16.2473 27.5667 16.3762C26.9563 14.7825 26.5438 12.7749 26.3966 11.9935C26.3332 11.657 26.44 11.3112 26.6821 11.0691C26.9241 10.827 27.2701 10.72 27.6065 10.7836C28.5423 10.96 31.2355 11.5162 32.8715 12.3377V11.3759L31.2276 9.77895C30.8172 9.38032 30.8076 8.72453 31.2064 8.31412C31.6051 7.9037 32.261 7.89426 32.6712 8.29289L33.9072 9.49387L35.1432 8.29289C35.5536 7.89426 36.2092 7.9038 36.6081 8.31412C37.0068 8.72443 36.9973 9.38022 36.5869 9.77895L34.9429 11.3759V12.338C36.5787 11.5164 39.2721 10.9603 40.2078 10.7839C40.5442 10.7203 40.8901 10.8272 41.1322 11.0694C41.3742 11.3114 41.4811 11.6574 41.4177 11.9938C41.2703 12.7753 40.858 14.7827 40.2476 16.3765C40.8261 16.2475 41.283 16.1579 41.5156 16.1141C41.8521 16.0505 42.1979 16.1575 42.44 16.3995C42.682 16.6416 42.7889 16.9876 42.7255 17.3239C42.5888 18.0491 42.0122 20.9384 41.157 22.9778C41.6638 22.8679 42.0607 22.7905 42.2785 22.7495C42.615 22.6859 42.9608 22.7929 43.2029 23.0349C43.445 23.277 43.5518 23.6229 43.4884 23.9593C43.3347 24.7747 42.6728 28.0943 41.6994 30.3227C41.948 30.2719 42.1464 30.2335 42.2786 30.2087C42.6151 30.145 42.9609 30.2519 43.203 30.4941C43.4451 30.7362 43.5519 31.0821 43.4885 31.4185C43.3364 32.2256 42.6863 35.4868 41.7291 37.714C42.5815 37.5201 43.2597 37.3872 43.5865 37.3256C43.923 37.2618 44.2689 37.3688 44.511 37.6111C44.753 37.8531 44.8598 38.199 44.7965 38.5354C44.5637 39.7697 43.3155 46.014 41.591 47.7388C40.5975 48.7324 39.2924 49.2292 37.9872 49.2292C36.9147 49.2292 35.8427 48.893 34.9432 48.2222V54.5102C34.9432 55.0824 34.4793 55.5461 33.9073 55.5461C33.3353 55.5461 32.8715 55.0824 32.8715 54.5102V48.2222C31.972 48.893 30.9 49.2292 29.8276 49.2292C28.5223 49.2292 27.2172 48.7324 26.2236 47.7388C24.4991 46.0141 23.2509 39.7697 23.0182 38.5354C22.9543 38.1987 23.0612 37.8527 23.3032 37.6107ZM33.9066 22.8393C33.4254 23.6734 33.0827 24.405 33.0679 24.674C33.0679 25.1366 33.4443 25.513 33.9069 25.513C34.3685 25.513 34.7442 25.1385 34.7459 24.6773C34.7297 24.4042 34.387 23.6726 33.9066 22.8393ZM33.9067 29.1284C33.2133 30.2946 32.7089 31.3551 32.7074 31.7101C32.7074 32.0719 32.8691 32.3961 33.1233 32.6162C33.3188 32.3897 33.6039 32.257 33.9069 32.257C34.2099 32.257 34.4951 32.3899 34.6906 32.6162C34.9448 32.3961 35.1065 32.0718 35.1065 31.7101C35.1051 31.356 34.6004 30.2954 33.9067 29.1284ZM33.9067 16.4865C33.5326 17.1503 33.2696 17.72 33.2482 17.951C33.2521 18.3109 33.5461 18.6025 33.9069 18.6025C34.2677 18.6025 34.5617 18.3109 34.5657 17.951C34.5443 17.7207 34.2811 17.1508 33.9067 16.4865ZM33.9067 35.2063C33.0191 36.6646 32.272 38.1537 32.272 38.6801C32.272 39.5817 33.0055 40.3151 33.9069 40.3151C34.8084 40.3151 35.5419 39.5816 35.5419 38.6801C35.542 38.1546 34.7946 36.6653 33.9067 35.2063ZM31.9854 34.3715C31.1707 33.7591 28.7833 33.0497 26.684 32.5666C27.199 34.8051 27.9715 37.3711 28.6092 38.009C29.0451 38.4449 29.6089 38.6947 30.2015 38.7328C30.2013 38.7152 30.2002 38.6978 30.2002 38.6801C30.2002 37.5826 31.1476 35.7645 31.9854 34.3715ZM32.4821 27.4858C32.3815 27.3231 32.2638 27.1704 32.1261 27.0327C31.4884 26.3949 28.9224 25.6226 26.684 25.1076C27.199 27.3459 27.9715 29.912 28.6092 30.5499C29.1636 31.1043 29.9277 31.3566 30.6847 31.258C30.9037 30.1354 31.8155 28.5419 32.4821 27.4858ZM35.6877 27.0328C35.5504 27.1701 35.432 27.3222 35.3311 27.4849C35.9976 28.5408 36.9096 30.1344 37.129 31.2571C37.8862 31.355 38.6524 31.1019 39.2046 30.5497C39.8424 29.9119 40.6148 27.3459 41.1299 25.1075C38.8915 25.6225 36.3255 26.395 35.6877 27.0328ZM35.8286 34.3715C36.6663 35.7645 37.6138 37.5827 37.6138 38.6801C37.6138 38.6972 37.6127 38.7141 37.6125 38.7312C38.2063 38.6919 38.7723 38.4414 39.2048 38.0089C39.8427 37.3711 40.6151 34.805 41.1302 32.5663C39.0309 33.049 36.6436 33.7584 35.8286 34.3715ZM29.1465 23.2449C29.6758 23.7743 30.4358 23.9888 31.1535 23.8302C31.4615 22.8591 32.1613 21.6726 32.6847 20.8613C32.5761 20.6053 32.4182 20.3704 32.2197 20.1717C31.7102 19.6623 29.5836 18.9742 27.4496 18.4751C27.9481 20.6085 28.6361 22.7347 29.1465 23.2449ZM28.767 13.1548C29.1707 14.8137 29.6951 16.3949 30.0675 16.7672C30.3948 17.0945 30.8433 17.2627 31.2958 17.2435C31.5367 16.4256 32.0983 15.4295 32.5668 14.6823C32.5111 14.6023 32.4502 14.5254 32.3797 14.4549C32.0081 14.0833 30.4265 13.5586 28.767 13.1548ZM35.4343 14.4548C35.3643 14.5248 35.302 14.6008 35.2462 14.6812C35.7151 15.4289 36.2777 16.4264 36.5185 17.245C36.9706 17.2655 37.4159 17.098 37.7465 16.7672C38.118 16.3958 38.6426 14.8142 39.0466 13.1549C37.3872 13.5587 35.8057 14.0833 35.4343 14.4548ZM35.5944 20.1716C35.395 20.371 35.2384 20.6061 35.1299 20.8623C35.6534 21.6737 36.3525 22.8594 36.6605 23.8301C37.3779 23.9886 38.138 23.7742 38.6676 23.2448C39.177 22.7354 39.865 20.609 40.3641 18.4751C38.2301 18.9743 36.1038 19.6623 35.5944 20.1716ZM35.8478 46.2735C37.027 47.453 38.9461 47.4531 40.1257 46.2735C40.9048 45.4944 41.8436 42.3357 42.4426 39.6788C39.7857 40.2777 36.6269 41.2166 35.8479 41.9957C34.6685 43.1751 34.6685 45.0942 35.8478 46.2735ZM27.6881 46.2735C28.8674 47.453 30.7864 47.4531 31.9661 46.2735C33.1455 45.0941 33.1455 43.1751 31.9661 41.9956C31.187 41.2165 28.0282 40.2776 25.3711 39.6786C25.9695 42.3351 26.9082 45.4936 27.6881 46.2735Z" fill="black"/>
<path d="M33.9069 56.8925C34.4789 56.8925 34.9427 57.3562 34.9427 57.9283V58.9642C34.9427 59.5363 34.4789 60 33.9069 60C33.3349 60 32.8711 59.5363 32.8711 58.9642V57.9283C32.8711 57.3562 33.3349 56.8925 33.9069 56.8925Z" fill="black"/>
</svg>
