<svg width="69" height="69" viewBox="0 0 69 69" fill="none" xmlns="http://www.w3.org/2000/svg">
<g id="Group 30">
<g id="Group 29">
<circle id="Ellipse 11" cx="34.0457" cy="34.0457" r="34.0457" fill="#FF0600" fill-opacity="0.62"/>
</g>
<g id="Group 18">
<path id="Vector" d="M46.5248 14.2605H21.5672V53.6847H46.5248V14.2605Z" fill="#E6E6E6"/>
<g id="Group">
<path id="Vector_2" d="M44.6467 11.2238H36.3642V14.2607H44.6467V11.2238Z" fill="#6DA8D6"/>
<path id="Vector_3" d="M46.5248 19.7275H21.5672V48.2185H46.5248V19.7275Z" fill="#6DA8D6"/>
</g>
<path id="Vector_4" d="M38.6334 36.2316C38.6334 38.6434 36.6782 40.5986 34.2663 40.5986C31.8545 40.5986 29.8993 38.6434 29.8993 36.2316C29.8993 33.8197 34.2663 27.3469 34.2663 27.3469C34.2663 27.3469 38.6334 33.8197 38.6334 36.2316Z" fill="#E6E6E6"/>
<path id="Vector_5" d="M20.686 53.6847C20.686 54.1712 21.0804 54.5656 21.5669 54.5656H46.5244C47.011 54.5656 47.4053 54.1712 47.4053 53.6847V14.2607C47.4053 13.7742 47.011 13.3798 46.5244 13.3798H45.528V11.2239C45.528 10.7373 45.1336 10.343 44.647 10.343H36.3647C35.8782 10.343 35.4838 10.7373 35.4838 11.2239V13.3798H21.5669C21.0804 13.3798 20.686 13.7742 20.686 14.2607V53.6847ZM37.2455 12.1048H43.766V13.3798H37.2455V12.1048ZM45.6434 15.1416V18.8461H22.4478V15.1416H45.6434ZM45.6434 47.3374H22.4478V20.608H45.6434V47.3374H45.6434V47.3374ZM22.4478 52.8038V49.0993H45.6434V52.8038H22.4478Z" fill="black"/>
<path id="Vector_6" d="M34.2664 41.4795C37.1601 41.4795 39.5144 39.1253 39.5144 36.2316C39.5144 33.6255 35.459 27.5396 34.9966 26.8541C34.8328 26.6114 34.5591 26.4659 34.2663 26.4659C33.9735 26.4659 33.6998 26.6114 33.536 26.8541C33.0736 27.5395 29.0182 33.6254 29.0182 36.2316C29.0185 39.1254 31.3727 41.4795 34.2664 41.4795ZM34.2665 28.9573C35.8391 31.4349 37.7525 34.8889 37.7525 36.2316C37.7525 38.1539 36.1886 39.7176 34.2664 39.7176C32.3442 39.7176 30.7803 38.1538 30.7803 36.2316C30.7803 34.8902 32.6939 31.4356 34.2665 28.9573Z" fill="black"/>
<path id="Vector_7" d="M43.3217 35.0747C43.8083 35.0747 44.2026 34.6803 44.2026 34.1937V33.8623C44.2026 33.3758 43.8083 32.9814 43.3217 32.9814C42.8352 32.9814 42.4408 33.3758 42.4408 33.8623V34.1937C42.4408 34.6802 42.8352 35.0747 43.3217 35.0747Z" fill="black"/>
<path id="Vector_8" d="M43.3217 45.8968C43.8083 45.8968 44.2026 45.5024 44.2026 45.0159V36.7336C44.2026 36.247 43.8083 35.8527 43.3217 35.8527C42.8352 35.8527 42.4408 36.247 42.4408 36.7336V45.0159C42.4408 45.5024 42.8352 45.8968 43.3217 45.8968Z" fill="black"/>
</g>
</g>
</svg>
