<svg width="69" height="69" viewBox="0 0 69 69" fill="none" xmlns="http://www.w3.org/2000/svg">
<circle cx="34.0457" cy="34.0457" r="34.0457" fill="#FF6461"/>
<path d="M47.7729 14.2108H20.9471V56.586H47.7729V14.2108Z" fill="#E6E6E6"/>
<path d="M45.7542 10.9468H36.8517V14.211H45.7542V10.9468Z" fill="#6DA8D6"/>
<path d="M47.7729 20.087H20.9471V50.7106H47.7729V20.087Z" fill="#6DA8D6"/>
<path d="M39.2909 37.8264C39.2909 40.4188 37.1893 42.5204 34.5969 42.5204C32.0045 42.5204 29.903 40.4188 29.903 37.8264C29.903 35.234 34.5969 28.2767 34.5969 28.2767C34.5969 28.2767 39.2909 35.234 39.2909 37.8264Z" fill="#E6E6E6"/>
<path d="M20 56.586C20 57.1089 20.4239 57.5328 20.9469 57.5328H47.7725C48.2955 57.5328 48.7194 57.1089 48.7194 56.586V14.211C48.7194 13.6881 48.2955 13.2642 47.7725 13.2642H46.7015V10.9468C46.7015 10.4239 46.2776 10 45.7546 10H36.8523C36.3294 10 35.9055 10.4239 35.9055 10.9468V13.2642H20.9469C20.4239 13.2642 20 13.6881 20 14.211V56.586ZM37.7991 11.8937H44.8076V13.2642H37.7991V11.8937ZM46.8255 15.1579V19.1397H21.8937V15.1579H46.8255V15.1579ZM46.8255 49.7636H21.8937V21.0334H46.8256V49.7635H46.8255V49.7636ZM21.8937 55.6391V51.6573H46.8256V55.6391H21.8937Z" fill="black"/>
<path d="M34.5969 43.4672C37.7073 43.4672 40.2377 40.9367 40.2377 37.8264C40.2377 35.0253 35.8788 28.4839 35.3818 27.747C35.2058 27.4862 34.9116 27.3297 34.5968 27.3297C34.2821 27.3297 33.9879 27.4862 33.8119 27.747C33.3148 28.4837 28.9559 35.0252 28.9559 37.8264C28.9562 40.9368 31.4867 43.4672 34.5969 43.4672ZM34.597 30.0076C36.2874 32.6707 38.3439 36.3833 38.3439 37.8264C38.3439 39.8926 36.663 41.5734 34.5969 41.5734C32.5308 41.5734 30.8499 39.8925 30.8499 37.8264C30.8499 36.3846 32.9067 32.6714 34.597 30.0076Z" fill="black"/>
<path d="M44.3302 36.5829C44.8531 36.5829 45.277 36.159 45.277 35.6361V35.2798C45.277 34.7569 44.8531 34.333 44.3302 34.333C43.8072 34.333 43.3833 34.7569 43.3833 35.2798V35.6361C43.3833 36.1589 43.8072 36.5829 44.3302 36.5829Z" fill="black"/>
<path d="M44.3302 48.2151C44.8531 48.2151 45.277 47.7912 45.277 47.2683V38.366C45.277 37.8431 44.8531 37.4192 44.3302 37.4192C43.8072 37.4192 43.3833 37.8431 43.3833 38.366V47.2683C43.3833 47.7912 43.8072 48.2151 44.3302 48.2151Z" fill="black"/>
</svg>
