<svg width="69" height="69" viewBox="0 0 69 69" fill="none" xmlns="http://www.w3.org/2000/svg">
<circle cx="34.0457" cy="34.0457" r="34.0457" fill="#FF6461"/>
<g clip-path="url(#clip0)">
<path d="M36.0392 7.30663L34.7964 7.27638L33.5536 7.24613C33.089 7.23482 32.677 7.49207 32.553 7.87078L30.5619 14.1389L34.5899 15.759L38.692 14.3367L37.0081 7.97921C36.9028 7.5948 36.5038 7.31793 36.0392 7.30663Z" fill="#F1EBDE"/>
<path d="M36.8599 14.972L38.6921 14.3368L37.0082 7.97933C36.9028 7.59503 36.5038 7.31805 36.0392 7.30674L34.8218 7.27711L36.8599 14.972Z" fill="#C6C3B2"/>
<path d="M38.8954 14.3417L34.627 14.2378L33.4074 14.2081L30.3586 14.1339C28.7935 14.0958 27.4818 15.3452 27.4437 16.9102L27.3646 20.1623L30.4135 20.2365L31.4298 20.2613L34.4787 20.3355L41.5926 20.5086L41.6718 17.2565C41.7097 15.6915 40.4604 14.3798 38.8954 14.3417Z" fill="#C6C3B2"/>
<path d="M44.1456 20.0617L43.2835 55.4792C43.2494 56.8824 42.0842 57.9922 40.681 57.9581L26.4533 57.6117C25.0501 57.5776 23.9403 56.4124 23.9744 55.0092L24.8365 19.5917C24.8707 18.1886 26.0358 17.0788 27.4391 17.1129L41.6668 17.4592C43.0698 17.4934 44.1796 18.6585 44.1456 20.0617Z" fill="#F3D035"/>
<path d="M41.6667 17.4591L35.3088 17.3044C36.712 17.3385 37.8218 18.5037 37.7877 19.9069L36.9771 53.2132C36.9765 53.2363 36.976 53.2591 36.9754 53.2817C36.9398 54.7458 35.7241 55.9032 34.2599 55.8675L24.0334 55.6185C24.2789 56.7349 25.2598 57.5826 26.4534 57.6117L35.4702 57.8311L40.6811 57.958C42.0843 57.9921 43.2495 56.8823 43.2837 55.4791L44.1457 20.0616C44.1796 18.6585 43.0698 17.4934 41.6667 17.4591Z" fill="#EFA628"/>
<path d="M39.7041 30.4222C39.0707 29.7572 38.3465 29.2314 37.5702 28.8422L30.7101 35.9599L37.2297 42.8319C38.024 42.4809 38.7729 41.9909 39.4379 41.3575C42.5312 38.4115 42.6503 33.5154 39.7041 30.4222Z" fill="#C6C3B2"/>
<path d="M37.325 28.7231C34.5337 27.4457 31.1271 27.9095 28.7685 30.156C25.6752 33.1023 25.5561 37.9983 28.5024 41.0915C30.7488 43.4501 34.1289 44.0792 36.979 42.939C37.0631 42.9054 37.1464 42.8687 37.2296 42.832L37.5701 28.8423C37.4888 28.8015 37.4075 28.7609 37.325 28.7231Z" fill="#F1EBDE"/>
<path d="M36.0549 6.66229L33.5694 6.60173C32.8223 6.58367 32.1521 7.023 31.939 7.67557L30.0902 13.4951C28.421 13.5894 27.0501 14.8662 26.8298 16.5149C25.364 16.7701 24.2298 18.033 24.192 19.5759L23.33 54.9936C23.2873 56.7498 24.6813 58.2134 26.4376 58.2562L40.6654 58.6025C41.5434 58.6238 42.3484 58.286 42.9392 57.7233C43.53 57.1606 43.9066 56.3731 43.928 55.4949L44.79 20.0773C44.8275 18.5343 43.7559 17.2176 42.3041 16.8915C42.2378 16.1038 41.9073 15.3656 41.3514 14.7819C40.7728 14.1745 40.0153 13.803 39.1946 13.7166L37.6297 7.80867C37.4496 7.15175 36.8019 6.68047 36.0549 6.66229ZM43.5011 20.046L42.6391 55.4635C42.6136 56.5091 41.7423 57.339 40.6966 57.3136L26.469 56.9674C25.4233 56.9419 24.5934 56.0706 24.6188 55.0249L25.4809 19.6074C25.4936 19.0846 25.7178 18.6157 26.0695 18.2808C26.4212 17.9458 26.9004 17.7446 27.4232 17.7574L41.6511 18.1036C42.6967 18.129 43.5266 19.0003 43.5011 20.046ZM36.3851 8.14424L37.8491 13.6714L35.9317 13.6248C35.5758 13.6161 35.2802 13.8975 35.2716 14.2534C35.2628 14.6093 35.5443 14.9048 35.9002 14.9135L38.8798 14.9861C39.9422 15.0119 40.8128 15.7902 40.9936 16.7979L28.1436 16.4852C28.3731 15.4877 29.2805 14.7524 30.3429 14.7783L30.5543 14.7834C30.5563 14.7834 30.5583 14.7835 30.5603 14.7836L33.3227 14.8509C33.6785 14.8595 33.9739 14.578 33.9827 14.2221C33.9914 13.8663 33.7099 13.5707 33.354 13.5621L31.4365 13.5155L33.1659 8.07123C33.1955 7.98078 33.3462 7.88591 33.5382 7.89065L36.0237 7.95114C36.2155 7.95563 36.3614 8.05777 36.3851 8.14424Z" fill="black"/>
<path d="M31.3563 32.5153C31.1131 32.6091 30.9503 32.8403 30.944 33.1009L30.8186 38.256C30.81 38.6119 31.0914 38.9074 31.4473 38.9161C31.8031 38.9247 32.0986 38.6433 32.1073 38.2874L32.1949 34.688L33.6365 36.2015C33.882 36.4593 34.29 36.4692 34.5477 36.2237L36.0612 34.7821L35.9736 38.3815C35.965 38.7374 36.2464 39.0329 36.6023 39.0416C36.7802 39.0459 36.9431 38.9777 37.0625 38.8639C37.1819 38.7502 37.258 38.5909 37.2623 38.413L37.3877 33.2579C37.394 32.9972 37.2428 32.7585 37.0044 32.6528C36.766 32.5472 36.4875 32.5956 36.2988 32.7754L34.1254 34.8455L32.0551 32.672C31.8753 32.4833 31.5995 32.4214 31.3563 32.5153Z" fill="black"/>
<path d="M28.324 29.6893C27.0546 30.8984 26.2083 32.4445 25.8768 34.1603C25.8092 34.5098 26.0378 34.8478 26.3874 34.9154C26.7368 34.9829 27.075 34.7544 27.1425 34.4049C27.4229 32.9537 28.139 31.6459 29.2131 30.6228C31.3255 28.6109 34.4042 28.0952 37.0569 29.3092C37.8766 29.6844 38.6102 30.2084 39.2373 30.8668C41.9337 33.6977 41.8243 38.1946 38.9934 40.891C38.3351 41.518 37.5769 42.0057 36.7396 42.3406C34.0312 43.4242 30.9811 42.7593 28.9692 40.647C27.946 39.5728 27.2945 38.2317 27.085 36.7687C27.0346 36.4163 26.7079 36.1715 26.3555 36.2219C26.0033 36.2724 25.7584 36.5991 25.8088 36.9514C26.0565 38.6813 26.8266 40.2667 28.0357 41.5361C30.4133 44.0324 34.0178 44.818 37.2185 43.5376C38.2087 43.1414 39.105 42.565 39.8825 41.8245C43.2281 38.6378 43.3575 33.3234 40.1708 29.9777C39.43 29.2 38.5628 28.5807 37.5934 28.1371C34.4587 26.7023 30.8203 27.3117 28.324 29.6893Z" fill="black"/>
</g>
<defs>
<clipPath id="clip0">
<rect width="44" height="44" fill="white" transform="translate(3 35) rotate(-43.6057)"/>
</clipPath>
</defs>
</svg>
