<svg width="69" height="69" viewBox="0 0 69 69" fill="none" xmlns="http://www.w3.org/2000/svg">
<circle cx="34.0457" cy="34.0457" r="34.0457" fill="#FF6461"/>
<path d="M48.2398 35.9804C48.2398 52.2244 41.6695 56.8598 33.5646 56.8598C25.4597 56.8598 18.8894 52.2244 18.8894 35.9804C18.8894 16.071 33.5646 10.781 33.5646 10.781C33.7806 10.857 48.2398 15.9951 48.2398 35.9804Z" fill="#C69C6D"/>
<path d="M46.8267 23.3669C45.5928 20.3643 43.8675 17.6924 41.6991 15.4254C38.0267 11.586 34.2689 10.1798 33.9664 10.0707C33.8011 10.0111 33.6219 9.98798 33.4447 10.0059C33.3546 10.0152 33.2653 10.0346 33.1788 10.0653C33.1764 10.0661 33.1666 10.0694 33.1643 10.0702C32.9462 10.1499 29.2303 11.5455 25.5113 15.4244C23.3234 17.7064 21.5815 20.3846 20.3341 23.3846C18.7853 27.1096 18 31.342 18 35.9642C18 43.7708 19.4587 49.3246 22.4593 52.9428C25.0447 56.0602 28.7811 57.6409 33.5646 57.6409C38.3481 57.6409 42.0846 56.0602 44.6699 52.9429C47.6705 49.3247 49.1292 43.7709 49.1292 35.9643C49.1293 31.3231 48.3547 27.0846 46.8267 23.3669ZM24.1494 51.8075C21.4683 48.5748 20.1088 43.2444 20.1088 35.9643C20.1088 26.1049 23.8727 20.0714 27.0302 16.7459C27.4606 16.2927 27.8919 15.8757 28.317 15.4933C26.0353 19.3983 23.7754 25.8239 23.7754 35.9643C23.7754 43.6958 24.6425 49.1912 26.4264 52.7643C26.737 53.3862 27.0768 53.9486 27.4449 54.4524C26.1777 53.8127 25.0832 52.9336 24.1494 51.8075ZM42.98 51.8075C42.046 52.9338 40.9514 53.8129 39.6842 54.4525C39.8709 54.197 40.0507 53.9274 40.2226 53.6415C41.9631 50.7464 42.9561 46.3252 43.2583 40.1253C43.2839 39.6016 42.833 39.1585 42.2512 39.1355C41.6673 39.1113 41.1771 39.5184 41.1516 40.042C40.6438 50.4603 38.0911 55.7428 33.5646 55.7428C28.4681 55.7428 25.884 49.0883 25.884 35.9643C25.884 26.0643 28.1437 19.9941 30.0396 16.6451C31.5215 14.0271 33.014 12.6267 33.7237 12.0538C34.8301 12.5432 37.4523 13.8946 40.1009 16.6637C43.2576 19.9639 47.0207 25.9914 47.0207 35.9643C47.0205 43.2443 45.661 48.5748 42.98 51.8075Z" fill="black"/>
<path d="M42.4603 34.9919C41.7243 34.9919 41.1278 35.3729 41.1278 35.8429C41.1278 36.0569 41.1268 36.2686 41.1245 36.4781C41.1196 36.9482 41.7123 37.3317 42.4481 37.3349C42.4511 37.3349 42.4541 37.3349 42.4571 37.3349C43.1887 37.3349 43.7845 36.9577 43.7895 36.4896C43.7917 36.2764 43.7927 36.0609 43.7927 35.8429C43.7927 35.373 43.1962 34.9919 42.4603 34.9919Z" fill="black"/>
</svg>
