<svg width="69" height="69" viewBox="0 0 69 69" fill="none" xmlns="http://www.w3.org/2000/svg">
<circle cx="34.0457" cy="34.0457" r="34.0457" fill="#FF6461"/>
<g clip-path="url(#clip0)">
<path d="M39.4132 20.8302C38.3475 21.8959 37.5213 23.0864 36.9471 24.3102C36.0449 26.2329 34.4994 27.7785 32.5766 28.6807C31.3528 29.2549 30.1622 30.0812 29.0965 31.1469C28.0308 32.2126 27.2046 33.4032 26.6304 34.6269C25.7282 36.5496 24.1827 38.0953 22.2599 38.9974C21.0361 39.5716 19.8455 40.3979 18.7798 41.4636C16.9433 43.3001 16.2991 45.4069 15.6 47.427C15.1147 48.8292 13.9011 50.2588 13.9011 50.2588C13.9011 50.2588 16.2671 52.641 17.0486 53.4225C19.8729 56.2467 25.2271 55.4715 29.0076 51.6909C30.0733 50.6252 30.8995 49.4346 31.4737 48.2109C32.3759 46.2882 33.9214 44.7425 35.8443 43.8404C37.068 43.2662 38.2586 42.4399 39.3243 41.3742C40.39 40.3085 41.2162 39.1179 41.7904 37.8942C42.6926 35.9715 44.2381 34.4258 46.161 33.5236C47.3847 32.9495 48.5753 32.1232 49.641 31.0575C51.6751 29.0234 53.492 24.7664 53.9538 21.5339C54.655 16.6252 52.5783 12.8761 52.5783 12.8761C52.5783 12.8761 51.5197 15.6483 47.3967 16.9192C44.2646 17.8849 41.0454 19.1981 39.4132 20.8302Z" fill="#39B54A"/>
<path d="M38.0133 32.458C36.494 30.9387 33.5598 31.4095 31.4595 33.5098C29.3593 35.61 28.8884 38.5442 30.4078 40.0635C31.9271 41.5829 34.8614 41.112 36.9616 39.0118C39.0618 36.9116 39.5327 33.9774 38.0133 32.458Z" fill="#8CC63F"/>
<path d="M27.6958 42.7739C26.1764 41.2545 23.2422 41.7254 21.142 43.8256C19.0418 45.9258 18.5709 48.86 20.0902 50.3794C21.6096 51.8987 24.5438 51.4278 26.644 49.3276C28.7442 47.2274 29.2151 44.2932 27.6958 42.7739Z" fill="#8CC63F"/>
<path d="M48.3296 22.1416C46.8103 20.6222 43.876 21.0931 41.7758 23.1933C39.6756 25.2935 39.2047 28.2277 40.7241 29.7471C42.2434 31.2664 45.1777 30.7956 47.2779 28.6953C49.3781 26.5951 49.849 23.6609 48.3296 22.1416Z" fill="#8CC63F"/>
<path d="M21.4478 56C19.4613 56 17.712 55.3251 16.4289 54.042C15.6552 53.2683 13.3029 50.9 13.2792 50.8762C12.9584 50.5531 12.9383 50.0383 13.233 49.6913C13.2436 49.6786 14.3477 48.3655 14.772 47.1399C14.8151 47.0154 14.8579 46.8906 14.9009 46.7655C15.5859 44.7715 16.2944 42.7095 18.1604 40.8435C19.2743 39.7296 20.5283 38.8416 21.888 38.2036C23.6213 37.3903 25.0239 35.9878 25.8372 34.2544C26.4752 32.8949 27.3633 31.6407 28.4771 30.5269C29.5908 29.4132 30.8448 28.5251 32.2045 27.8871C33.9379 27.0738 35.3406 25.6712 36.1538 23.9378C36.7918 22.5782 37.6799 21.3241 38.7936 20.2104C40.2863 18.7177 43.0939 17.3287 47.1383 16.0819C50.8104 14.9498 51.7501 12.5874 51.7592 12.5637C51.8809 12.2452 52.1761 12.026 52.5162 12.0021C52.8563 11.9786 53.1794 12.1534 53.3446 12.4516C53.4353 12.6152 55.5555 16.5171 54.8211 21.6581C54.3025 25.2887 52.3418 29.5961 50.2605 31.6774C49.1468 32.7911 47.8928 33.6792 46.533 34.3172C44.7997 35.1305 43.3971 36.5331 42.5838 38.2665C41.9458 39.6262 41.0577 40.8803 39.944 41.9939C38.8302 43.1078 37.5761 43.9958 36.2165 44.6337C34.4832 45.4471 33.0805 46.8496 32.2673 48.583C31.6293 49.9427 30.7412 51.1967 29.6274 52.3105C27.6662 54.2717 25.2397 55.5468 22.7951 55.9008C22.3361 55.9671 21.8862 56 21.4478 56ZM15.0646 50.1862C15.8119 50.9383 17.1277 52.2619 17.6684 52.8025C18.8341 53.9682 20.5652 54.4524 22.544 54.1659C24.6168 53.8658 26.6923 52.7667 28.388 51.0711C29.3577 50.1013 30.129 49.0137 30.6803 47.8385C31.6672 45.7354 33.3688 44.0337 35.4719 43.0469C36.6471 42.4955 37.7347 41.7243 38.7045 40.7545C39.6741 39.7849 40.4453 38.6973 40.9968 37.5221C41.9836 35.4189 43.6853 33.7172 45.7884 32.7305C46.9637 32.179 48.0512 31.4078 49.0209 30.4382C50.8061 28.6529 52.6296 24.6031 53.0856 21.4105C53.4874 18.5983 52.9177 16.1865 52.4165 14.7411C51.5765 15.7459 50.1037 17.0023 47.6545 17.7573C43.9389 18.9028 41.3034 20.1798 40.0329 21.4503C39.0633 22.4199 38.292 23.5076 37.7406 24.6828C36.7538 26.7859 35.0521 28.4876 32.949 29.4744C31.7737 30.0258 30.6862 30.797 29.7165 31.7667C28.7468 32.7364 27.9755 33.824 27.4242 34.9991C26.4373 37.1023 24.7357 38.8039 22.6325 39.7907C21.4573 40.3421 20.3697 41.1134 19.4 42.083C17.8206 43.6625 17.2077 45.4465 16.5588 47.3352C16.5154 47.4616 16.4721 47.5876 16.4285 47.7134C16.1016 48.6581 15.4961 49.5913 15.0646 50.1862Z" fill="black"/>
<path d="M32.7264 41.8322C31.5643 41.8322 30.5417 41.4369 29.7878 40.683C28.8488 39.7441 28.4662 38.3881 28.7107 36.8652C28.9384 35.4466 29.6944 34.0347 30.8396 32.8895C31.9848 31.7443 33.3968 30.9883 34.8154 30.7606C36.3383 30.5164 37.6941 30.8986 38.6331 31.8376C39.5721 32.7766 39.9546 34.1325 39.7102 35.6554C39.4825 37.074 38.7265 38.4858 37.5813 39.6311C36.4361 40.7763 35.0241 41.5324 33.6055 41.7601C33.3054 41.8084 33.0115 41.8322 32.7264 41.8322ZM35.691 32.4473C34.5375 32.4473 33.1675 33.0408 32.0792 34.1292C31.1927 35.0155 30.6111 36.086 30.4414 37.1432C30.2884 38.0959 30.4966 38.913 31.0272 39.4436C31.5579 39.9744 32.3748 40.1825 33.3278 40.0295C34.385 39.8597 35.4553 39.2782 36.3418 38.3917C38.0673 36.6663 38.549 34.2325 37.3937 33.0772C36.9671 32.6507 36.3661 32.4473 35.691 32.4473Z" fill="black"/>
<path d="M22.4099 52.1487C21.2478 52.1487 20.2253 51.7536 19.4713 50.9996C18.5324 50.0606 18.1498 48.7047 18.3943 47.1818C18.622 45.7632 19.378 44.3513 20.5232 43.2061C21.6684 42.0608 23.0804 41.3049 24.4989 41.0771C26.022 40.8326 27.3778 41.2151 28.3168 42.1542C29.2558 43.0932 29.6384 44.449 29.3939 45.972C29.1661 47.3906 28.4101 48.8025 27.2649 49.9478C26.1197 51.093 24.7078 51.8489 23.2892 52.0767C22.9889 52.1249 22.6952 52.1487 22.4099 52.1487ZM25.3689 42.759C25.1787 42.759 24.9808 42.7752 24.7766 42.808C23.7194 42.9777 22.6491 43.5593 21.7626 44.4458C20.0372 46.1713 19.5554 48.605 20.7107 49.7603C21.866 50.9155 24.2997 50.434 26.0252 48.7084C26.9116 47.822 27.4933 46.7516 27.663 45.6944C27.816 44.7416 27.6079 43.9245 27.0772 43.3938C26.6602 42.9768 26.0664 42.759 25.3689 42.759Z" fill="black"/>
<path d="M43.0428 31.5157C41.8806 31.5157 40.8582 31.1206 40.1042 30.3667C39.1653 29.4276 38.7827 28.0717 39.0272 26.5488C39.2549 25.1302 40.0109 23.7184 41.1561 22.5731C42.3013 21.4279 43.7133 20.6719 45.1318 20.4441C46.6548 20.1995 48.0106 20.5822 48.9496 21.5212C49.8886 22.4602 50.2711 23.8161 50.0267 25.339C49.7989 26.7576 49.0428 28.1695 47.8976 29.3147C46.7524 30.4599 45.3406 31.2159 43.922 31.4436C43.6219 31.4918 43.3281 31.5157 43.0428 31.5157ZM46.0019 22.1259C45.8118 22.1259 45.6138 22.1422 45.4097 22.1749C44.3525 22.3446 43.2821 22.9262 42.3957 23.8127C40.6703 25.5382 40.1885 27.9719 41.3439 29.1273C42.499 30.2825 44.9329 29.8009 46.6583 28.0753C47.5448 27.1889 48.1264 26.1185 48.2961 25.0613C48.4491 24.1084 48.241 23.2914 47.7103 22.7608C47.2932 22.3438 46.6994 22.1259 46.0019 22.1259Z" fill="black"/>
<path d="M22.4461 49.8181C22.4375 49.8181 22.429 49.8181 22.4204 49.818C21.9364 49.8126 21.5484 49.4159 21.5538 48.9318C21.5592 48.4478 21.9572 48.0604 22.44 48.0651C22.4423 48.0651 22.4446 48.0651 22.4471 48.0651C22.7721 48.0651 23.3829 47.8201 24.0243 47.2699C24.3915 46.9546 24.945 46.9968 25.2602 47.3641C25.5755 47.7314 25.5332 48.2848 25.1659 48.6C24.2625 49.3753 23.273 49.8181 22.4461 49.8181Z" fill="black"/>
<path d="M25.9793 47.0587C25.8529 47.0587 25.7245 47.0313 25.6029 46.9733C25.1659 46.7651 24.9805 46.242 25.1887 45.8051C25.227 45.725 25.2601 45.6461 25.2875 45.5705C25.4529 45.1156 25.9556 44.8807 26.4107 45.0461C26.8656 45.2113 27.1004 45.7143 26.9351 46.1692C26.8886 46.2973 26.8334 46.4285 26.7712 46.5591C26.6209 46.8743 26.3068 47.0587 25.9793 47.0587Z" fill="black"/>
</g>
<defs>
<clipPath id="clip0">
<rect width="44" height="44" fill="white" transform="translate(12 12)"/>
</clipPath>
</defs>
</svg>
