<svg width="50" height="50" viewBox="0 0 50 50" fill="none" xmlns="http://www.w3.org/2000/svg">
<circle cx="25" cy="25" r="25" fill="#FF6461"/>
<path d="M38.7154 15.5111C37.0961 13.8918 34.9432 13 32.6531 13C30.3631 13 28.2101 13.8918 26.5907 15.5111L25.1133 16.9886L23.6358 15.5111C22.0165 13.8918 19.8636 13 17.5734 13C15.2834 13 13.1304 13.8918 11.5111 15.5111C9.8918 17.1305 9 19.2835 9 21.5734C9 23.8635 9.8918 26.0165 11.5111 27.6357L24.0775 40.2021C24.3636 40.4882 24.7385 40.6312 25.1133 40.6312C25.4881 40.6312 25.8631 40.4883 26.149 40.2021L38.7154 27.6357C40.3348 26.0165 41.2266 23.8636 41.2266 21.5734C41.2266 19.2835 40.3348 17.1305 38.7154 15.5111V15.5111ZM36.6438 25.5643L25.1133 37.0947L13.5827 25.5642C12.5167 24.4982 11.9297 23.081 11.9297 21.5734C11.9297 20.0659 12.5167 18.6486 13.5827 17.5827C14.683 16.4824 16.1282 15.9323 17.5734 15.9323C19.0188 15.9323 20.464 16.4824 21.5643 17.5827L24.0775 20.096C24.6495 20.6681 25.5771 20.6681 26.1491 20.096L28.6624 17.5827C30.8628 15.3821 34.4434 15.3821 36.6439 17.5827C37.7099 18.6487 38.2969 20.066 38.2969 21.5734C38.2969 23.081 37.7099 24.4982 36.6438 25.5643Z" fill="white"/>
</svg>
