<svg width="69" height="69" viewBox="0 0 69 69" fill="none" xmlns="http://www.w3.org/2000/svg">
<circle cx="34.0457" cy="34.0457" r="34.0457" fill="#DBFF75"/>
<path d="M38.6244 19.0672C36.2357 15.3504 32.0647 12.8881 27.3183 12.8881C19.901 12.8881 13.8882 18.901 13.8882 26.3182C13.8882 30.3241 15.6428 33.9196 18.4244 36.3802C18.4082 36.6965 18.3998 37.0147 18.3998 37.335C18.3998 47.4757 26.6205 55.6964 36.7613 55.6964C46.902 55.6964 55.1227 47.4757 55.1227 37.335C55.1228 27.8233 47.8902 20.0009 38.6244 19.0672Z" fill="#E6E6E6"/>
<path d="M27.3187 33.0338C31.0274 33.0338 34.0339 30.0273 34.0339 26.3186C34.0339 22.6099 31.0274 19.6034 27.3187 19.6034C23.61 19.6034 20.6035 22.6099 20.6035 26.3186C20.6035 30.0273 23.61 33.0338 27.3187 33.0338Z" fill="#FFCC75"/>
<path d="M36.7613 56.5847C31.6195 56.5847 26.7855 54.5824 23.1498 50.9466C19.5141 47.3109 17.5117 42.4768 17.5117 37.3351C17.5117 37.1438 17.5145 36.9509 17.5203 36.7578C14.6421 34.055 13 30.2747 13 26.3182C13.0001 18.4232 19.4233 12 27.3183 12C32.0724 12 36.458 14.3208 39.1351 18.2308C43.6936 18.7919 47.8952 20.9675 51.0051 24.3868C54.2331 27.9356 56.0108 32.5341 56.0108 37.3351C56.0108 42.4769 54.0085 47.311 50.3727 50.9467C46.7371 54.5824 41.9031 56.5847 36.7613 56.5847ZM27.3183 13.7762C20.4026 13.7762 14.7763 19.4025 14.7763 26.3182C14.7763 29.9084 16.3204 33.3334 19.0128 35.715C19.2153 35.8942 19.3252 36.1557 19.3113 36.4257C19.2958 36.7282 19.288 37.0341 19.288 37.3351C19.288 46.9699 27.1265 54.8083 36.7613 54.8083C46.3961 54.8083 54.2345 46.9699 54.2345 37.3351C54.2345 28.3263 47.4854 20.8527 38.5353 19.9509C38.2659 19.9237 38.0235 19.7751 37.8772 19.5474C35.555 15.9336 31.6077 13.7762 27.3183 13.7762Z" fill="black"/>
<path d="M27.3183 33.9215C23.1259 33.9215 19.7151 30.5107 19.7151 26.3183C19.7151 22.1259 23.1259 18.7151 27.3183 18.7151C31.5106 18.7151 34.9214 22.1259 34.9214 26.3183C34.9214 30.5107 31.5107 33.9215 27.3183 33.9215ZM27.3183 20.4914C24.1053 20.4914 21.4914 23.1053 21.4914 26.3183C21.4914 29.5313 24.1053 32.1452 27.3183 32.1452C30.5313 32.1452 33.1451 29.5313 33.1451 26.3183C33.1451 23.1053 30.5313 20.4914 27.3183 20.4914Z" fill="black"/>
<path d="M36.7613 53.2985C36.2708 53.2985 35.8731 52.9009 35.8731 52.4104C35.8731 51.9199 36.2708 51.5223 36.7613 51.5223C39.7388 51.5223 42.5884 50.6103 45.0019 48.885C45.4009 48.5997 45.9555 48.6921 46.2408 49.091C46.5261 49.4901 46.4339 50.0448 46.0349 50.3301C43.3183 52.2721 40.1116 53.2985 36.7613 53.2985Z" fill="black"/>
<path d="M48.0309 48.2361C47.8211 48.2361 47.6104 48.1621 47.4411 48.0117C47.0746 47.6859 47.0416 47.1245 47.3675 46.7579C47.6526 46.4373 47.9263 46.0996 48.1814 45.7545C48.4728 45.3601 49.0289 45.2765 49.4234 45.5678C49.8179 45.8593 49.9016 46.4154 49.6101 46.8099C49.3234 47.198 49.0156 47.5776 48.6951 47.9381C48.5196 48.1355 48.2758 48.2361 48.0309 48.2361Z" fill="black"/>
</svg>
