<svg width="69" height="69" viewBox="0 0 69 69" fill="none" xmlns="http://www.w3.org/2000/svg">
<circle cx="34.0457" cy="34.0457" r="34.0457" fill="#DBFF75"/>
<path d="M35.9483 41.6995C34.289 43.3587 34.289 46.0489 35.9483 47.7083C37.6076 49.3676 40.2977 49.3676 41.9571 47.7083C43.6164 46.049 45.0125 38.6442 45.0125 38.6442C45.0125 38.6442 37.6077 40.0402 35.9483 41.6995Z" fill="#FFCC75"/>
<path d="M33.4195 41.6995C35.0788 43.3587 35.0788 46.0489 33.4195 47.7083C31.7603 49.3676 29.0701 49.3676 27.4107 47.7083C25.7515 46.049 24.3553 38.6442 24.3553 38.6442C24.3553 38.6442 31.7602 40.0402 33.4195 41.6995Z" fill="#FFCC75"/>
<path d="M35.7809 33.8482C34.3414 35.2877 34.3414 37.6215 35.7809 39.0609C37.2204 40.5004 39.5543 40.5004 40.9937 39.0609C42.4332 37.6214 43.6442 31.1977 43.6442 31.1977C43.6442 31.1977 37.2203 32.4087 35.7809 33.8482Z" fill="#FFCC75"/>
<path d="M33.5869 33.8482C35.0264 35.2877 35.0264 37.6215 33.5869 39.0609C32.1474 40.5004 29.8135 40.5004 28.3741 39.0609C26.9347 37.6214 25.7236 31.1977 25.7236 31.1977C25.7236 31.1977 32.1475 32.4087 33.5869 33.8482Z" fill="#FFCC75"/>
<path d="M35.7809 26.0434C34.3414 27.4829 34.3414 29.8167 35.7809 31.2561C37.2204 32.6956 39.5543 32.6956 40.9937 31.2561C42.4332 29.8166 43.6442 23.3929 43.6442 23.3929C43.6442 23.3929 37.2203 24.6039 35.7809 26.0434Z" fill="#FFCC75"/>
<path d="M33.5869 26.0434C35.0264 27.4829 35.0264 29.8167 33.5869 31.2561C32.1474 32.6956 29.8135 32.6956 28.3741 31.2561C26.9346 29.8166 25.7236 23.3929 25.7236 23.3929C25.7236 23.3929 32.1475 24.6039 33.5869 26.0434Z" fill="#FFCC75"/>
<path d="M35.6831 18.8646C34.3719 20.1758 34.3719 22.3017 35.6831 23.6129C36.9944 24.9242 39.1203 24.9242 40.4315 23.6129C41.7427 22.3017 42.8459 16.4503 42.8459 16.4503C42.8459 16.4503 36.9944 17.5533 35.6831 18.8646Z" fill="#FFCC75"/>
<path d="M33.6847 18.8646C34.9959 20.1758 34.9959 22.3017 33.6847 23.6129C32.3735 24.9242 30.2476 24.9242 28.9363 23.6129C27.6251 22.3017 26.5219 16.4503 26.5219 16.4503C26.5219 16.4503 32.3735 17.5533 33.6847 18.8646Z" fill="#FFCC75"/>
<path d="M35.5156 12.8829C34.4242 13.9742 34.4242 15.7437 35.5156 16.8351C36.607 17.9264 38.3764 17.9264 39.4678 16.8351C40.5592 15.7437 41.4773 10.8732 41.4773 10.8732C41.4773 10.8732 36.6071 11.7914 35.5156 12.8829Z" fill="#FFCC75"/>
<path d="M33.8523 12.8829C34.9436 13.9742 34.9436 15.7437 33.8523 16.8351C32.7609 17.9265 30.9914 17.9264 29.9001 16.8351C28.8086 15.7437 27.8905 10.8732 27.8905 10.8732C27.8905 10.8732 32.7609 11.7914 33.8523 12.8829Z" fill="#FFCC75"/>
<path d="M37.4786 38.9967C37.4786 40.5401 36.2274 41.7913 34.6839 41.7913C33.1405 41.7913 31.8893 40.5401 31.8893 38.9967C31.8893 37.4532 34.6839 33.36 34.6839 33.36C34.6839 33.36 37.4786 37.4533 37.4786 38.9967Z" fill="#FFCC75"/>
<path d="M37.0229 31.704C37.0229 32.9957 35.9757 34.0429 34.6839 34.0429C33.3923 34.0429 32.345 32.9958 32.345 31.704C32.345 30.4122 34.6839 26.9863 34.6839 26.9863C34.6839 26.9863 37.0229 30.4122 37.0229 31.704Z" fill="#FFCC75"/>
<path d="M36.6457 24.3418C36.6457 25.4252 35.7675 26.3036 34.6839 26.3036C33.6005 26.3036 32.7221 25.4254 32.7221 24.3418C32.7221 23.2584 34.6839 20.3851 34.6839 20.3851C34.6839 20.3851 36.6457 23.2584 36.6457 24.3418Z" fill="#FFCC75"/>
<path d="M36.457 17.4737C36.457 18.453 35.6632 19.2468 34.6839 19.2468C33.7047 19.2468 32.9109 18.453 32.9109 17.4737C32.9109 16.4945 34.6839 13.8976 34.6839 13.8976C34.6839 13.8976 36.457 16.4945 36.457 17.4737Z" fill="#FFCC75"/>
<path d="M23.5889 37.8779C23.8421 37.6246 24.2043 37.5125 24.5561 37.5792C24.8981 37.6437 25.6078 37.7826 26.4997 37.9856C25.4981 35.6553 24.8179 32.243 24.6587 31.3984C24.5924 31.0465 24.7042 30.6845 24.9574 30.4312C25.2106 30.1779 25.573 30.066 25.9247 30.1326C26.0629 30.1587 26.2707 30.1988 26.5307 30.2519C25.5122 27.9203 24.8197 24.4468 24.6588 23.5937C24.5925 23.2417 24.7043 22.8798 24.9575 22.6264C25.2107 22.3732 25.573 22.2612 25.9248 22.3278C26.1527 22.3708 26.5679 22.4518 27.0984 22.5667C26.2036 20.433 25.6002 17.4098 25.4572 16.6509C25.3909 16.2989 25.5027 15.937 25.7559 15.6837C26.0091 15.4304 26.3713 15.3184 26.7232 15.385C26.9665 15.4308 27.4446 15.5247 28.0499 15.6595C27.4112 13.9921 26.9797 11.8915 26.8256 11.0739C26.7593 10.7218 26.8711 10.36 27.1243 10.1066C27.3775 9.85327 27.7396 9.74137 28.0916 9.80789C29.0707 9.99248 31.8887 10.5744 33.6005 11.434V10.4276L31.8804 8.75669C31.451 8.33959 31.441 7.65342 31.8582 7.22399C32.2754 6.79456 32.9617 6.78468 33.3909 7.20178L34.6842 8.4584L35.9775 7.20178C36.4068 6.78468 37.0929 6.79467 37.5102 7.22399C37.9274 7.65331 37.9174 8.33948 37.488 8.75669L35.7678 10.4276V11.4343C37.4795 10.5746 40.2976 9.9928 41.2766 9.80821C41.6287 9.74169 41.9905 9.85348 42.2439 10.1069C42.4971 10.3602 42.6089 10.7221 42.5426 11.0742C42.3884 11.8918 41.957 13.9923 41.3183 15.6598C41.9236 15.5249 42.4017 15.4312 42.645 15.3854C42.9971 15.3188 43.359 15.4307 43.6123 15.684C43.8655 15.9373 43.9773 16.2993 43.911 16.6512C43.768 17.41 43.1647 20.4332 42.2698 22.567C42.8001 22.4521 43.2154 22.3711 43.4433 22.3281C43.7954 22.2616 44.1572 22.3735 44.4106 22.6268C44.6638 22.8801 44.7756 23.2421 44.7093 23.594C44.5484 24.4471 43.8559 27.9206 42.8374 30.2522C43.0975 30.1991 43.3051 30.1589 43.4434 30.1329C43.7955 30.0662 44.1573 30.1781 44.4107 30.4315C44.6639 30.6848 44.7757 31.0468 44.7094 31.3987C44.5502 32.2432 43.87 35.6555 42.8684 37.986C43.7603 37.783 44.47 37.644 44.812 37.5795C45.164 37.5127 45.526 37.6248 45.7792 37.8782C46.0324 38.1314 46.1442 38.4934 46.0779 38.8453C45.8344 40.1368 44.5283 46.6705 42.724 48.4751C41.6844 49.5147 40.3188 50.0346 38.9532 50.0346C37.831 50.0346 36.7094 49.6828 35.7681 48.981V55.5603C35.7681 56.1589 35.2828 56.6441 34.6843 56.6441C34.0858 56.6441 33.6005 56.1589 33.6005 55.5603V48.981C32.6593 49.6828 31.5376 50.0346 30.4155 50.0346C29.0498 50.0346 27.6842 49.5147 26.6446 48.4751C24.8402 46.6706 23.5342 40.1368 23.2907 38.8453C23.2239 38.4931 23.3357 38.131 23.5889 37.8779ZM34.6836 22.4221C34.1801 23.2949 33.8215 24.0603 33.806 24.3418C33.806 24.8259 34.1998 25.2197 34.6839 25.2197C35.1669 25.2197 35.56 24.8278 35.5618 24.3452C35.5448 24.0595 35.1862 23.294 34.6836 22.4221ZM34.6837 29.0026C33.9581 30.2228 33.4304 31.3324 33.4288 31.7038C33.4288 32.0825 33.5979 32.4217 33.8639 32.652C34.0685 32.415 34.3668 32.2761 34.6839 32.2761C35.0009 32.2761 35.2993 32.4152 35.5038 32.652C35.7698 32.4217 35.939 32.0824 35.939 31.7038C35.9375 31.3334 35.4095 30.2236 34.6837 29.0026ZM34.6837 15.775C34.2922 16.4695 34.0171 17.0657 33.9946 17.3073C33.9988 17.6839 34.3063 17.989 34.6839 17.989C35.0613 17.989 35.369 17.6839 35.3731 17.3073C35.3508 17.0664 35.0754 16.47 34.6837 15.775ZM34.6837 35.362C33.7549 36.8879 32.9732 38.446 32.9732 38.9968C32.9732 39.9401 33.7407 40.7075 34.6839 40.7075C35.6271 40.7075 36.3946 39.94 36.3946 38.9968C36.3947 38.4469 35.6127 36.8886 34.6837 35.362ZM32.6733 34.4886C31.8209 33.8478 29.3229 33.1055 27.1263 32.6001C27.6652 34.9422 28.4735 37.6271 29.1407 38.2946C29.5968 38.7507 30.1867 39.0121 30.8068 39.0519C30.8066 39.0335 30.8054 39.0153 30.8054 38.9968C30.8054 37.8484 31.7967 35.9461 32.6733 34.4886ZM33.1931 27.2838C33.0877 27.1136 32.9647 26.9539 32.8206 26.8098C32.1533 26.1424 29.4685 25.3344 27.1263 24.7955C27.6652 27.1375 28.4735 29.8225 29.1407 30.4899C29.7209 31.0701 30.5203 31.334 31.3124 31.2308C31.5415 30.0563 32.4956 28.3889 33.1931 27.2838ZM36.5472 26.8099C36.4035 26.9536 36.2796 27.1126 36.1741 27.2829C36.8714 28.3877 37.8257 30.0552 38.0552 31.2299C38.8476 31.3323 39.6492 31.0675 40.227 30.4897C40.8944 29.8224 41.7026 27.1375 42.2414 24.7954C39.8994 25.3342 37.2145 26.1425 36.5472 26.8099ZM36.6946 34.4886C37.5711 35.9461 38.5624 37.8486 38.5624 38.9968C38.5624 39.0146 38.5614 39.0324 38.5612 39.0502C39.1824 39.0091 39.7746 38.747 40.2272 38.2945C40.8947 37.6271 41.7029 34.9421 42.2418 32.5998C40.0452 33.1048 37.5474 33.847 36.6946 34.4886ZM29.7029 22.8465C30.2568 23.4004 31.052 23.6248 31.8029 23.4589C32.1252 22.4428 32.8574 21.2014 33.4051 20.3524C33.2915 20.0846 33.1262 19.8388 32.9185 19.631C32.3854 19.0979 30.1603 18.378 27.9274 17.8558C28.449 20.0879 29.1689 22.3126 29.7029 22.8465ZM29.3059 12.2889C29.7282 14.0247 30.277 15.6792 30.6665 16.0687C31.009 16.4112 31.4783 16.5871 31.9518 16.5671C32.2038 15.7113 32.7915 14.669 33.2817 13.8872C33.2234 13.8035 33.1597 13.723 33.0859 13.6493C32.6971 13.2604 31.0422 12.7114 29.3059 12.2889ZM36.282 13.6492C36.2088 13.7224 36.1436 13.802 36.0852 13.886C36.5759 14.6684 37.1645 15.7121 37.4165 16.5686C37.8895 16.5901 38.3554 16.4148 38.7013 16.0687C39.0901 15.68 39.6389 14.0252 40.0617 12.289C38.3254 12.7116 36.6707 13.2604 36.282 13.6492ZM36.4495 19.6309C36.2409 19.8395 36.0771 20.0855 35.9636 20.3535C36.5113 21.2025 37.2428 22.4431 37.565 23.4588C38.3157 23.6246 39.111 23.4003 39.6651 22.8464C40.1981 22.3134 40.918 20.0884 41.4402 17.8558C39.2074 18.3781 36.9826 19.0979 36.4495 19.6309ZM36.7147 46.942C37.9485 48.1761 39.9565 48.1762 41.1908 46.942C42.0059 46.1268 42.9883 42.8218 43.6151 40.0417C40.835 40.6684 37.5298 41.6508 36.7148 42.466C35.4808 43.7 35.4808 45.708 36.7147 46.942ZM28.177 46.942C29.4109 48.1761 31.4188 48.1762 32.6531 46.942C33.8872 45.7079 33.8872 43.7 32.6531 42.4659C31.8379 41.6507 28.5328 40.6683 25.7526 40.0415C26.3787 42.8211 27.361 46.126 28.177 46.942Z" fill="black"/>
<path d="M34.6839 58.0529C35.2824 58.0529 35.7677 58.5381 35.7677 59.1367V60.2206C35.7677 60.8192 35.2824 61.3044 34.6839 61.3044C34.0854 61.3044 33.6001 60.8192 33.6001 60.2206V59.1367C33.6001 58.5381 34.0854 58.0529 34.6839 58.0529Z" fill="black"/>
</svg>
