<svg width="69" height="69" viewBox="0 0 69 69" fill="none" xmlns="http://www.w3.org/2000/svg">
<circle cx="34.0457" cy="34.0457" r="34.0457" fill="#DBFF75"/>
<path d="M33.2602 15.6343C31.8089 17.0747 30.8477 18.8354 30.3676 20.732C29.2976 24.9582 26.084 28.1716 21.858 29.2416C19.9614 29.7218 18.2007 30.6829 16.7603 32.1342C12.1567 36.7729 12.6084 44.7502 17.7593 49.8195C22.8748 54.854 30.7081 55.2214 35.3072 50.6223C36.7191 49.2104 37.6628 47.494 38.1471 45.6447C39.2677 41.3659 42.4922 38.1414 46.7711 37.0208C48.6203 36.5365 50.3368 35.5927 51.7486 34.1809C56.3476 29.5819 55.9804 21.7486 50.9459 16.633C45.8764 11.4824 37.8989 11.0305 33.2602 15.6343Z" fill="#FFCC75"/>
<path d="M51.6113 15.9221C51.6107 15.9215 51.6102 15.9208 51.6096 15.9203C51.607 15.9175 51.6041 15.915 51.6015 15.9123C48.9517 13.2386 45.5067 11.6543 41.8943 11.4508C38.2653 11.2463 34.9295 12.4608 32.5015 14.8705C30.9863 16.374 29.9044 18.2818 29.371 20.3884C28.3771 24.3139 25.4402 27.2509 21.5147 28.2447C19.4081 28.778 17.496 29.8627 15.9968 31.3752C13.587 33.8033 12.3726 37.139 12.5771 40.7679C12.7807 44.3805 14.3647 47.8254 17.0385 50.4753C17.0413 50.4781 17.0437 50.4808 17.0466 50.4835C17.0472 50.4841 17.0478 50.4846 17.0484 50.4852C17.0584 50.495 17.0678 50.505 17.0778 50.5147C19.7566 53.1511 23.2032 54.6938 26.783 54.8589C30.3648 55.024 33.6626 53.7898 36.0688 51.3837C37.5422 49.9103 38.6049 48.0473 39.1422 45.9959C40.1792 42.0361 43.1625 39.0529 47.1222 38.0159C49.1736 37.4786 51.0366 36.4158 52.5099 34.9425C54.9161 32.5363 56.1503 29.2385 55.9852 25.6567C55.8202 22.077 54.2774 18.6303 51.641 15.9515C51.6311 15.9414 51.6211 15.932 51.6113 15.9221ZM50.5345 33.762C50.5194 33.7995 50.5077 33.8378 50.4977 33.8764C49.434 34.8039 48.1732 35.5001 46.8032 35.9165C46.6791 35.0558 46.3646 34.0964 45.8815 33.0792C46.7902 32.4414 47.6637 31.708 48.4694 30.9022C49.2904 30.0812 50.0136 29.2189 50.6359 28.3362C51.1668 30.304 51.1631 32.2002 50.5345 33.762ZM41.2291 38.726L39.6836 37.1805C40.9223 36.0573 42.2952 35.0968 43.7299 34.3734C43.8825 34.2965 44.0347 34.2156 44.1866 34.1328C44.616 35.1073 44.8225 35.9397 44.8089 36.5586C43.4846 37.0913 42.2809 37.8248 41.2291 38.726ZM37.6842 43.6841C37.0434 43.6987 36.2057 43.4759 35.2608 43.0573C35.3429 42.9065 35.4231 42.7555 35.4995 42.604C36.2228 41.1693 37.1834 39.7964 38.3066 38.5576L39.8521 40.1032C38.9505 41.1552 38.2168 42.3594 37.6842 43.6841ZM35.0025 49.3717C34.9639 49.3818 34.9256 49.3935 34.8881 49.4086C33.3263 50.037 31.4301 50.0407 29.4623 49.51C30.345 48.8877 31.2073 48.1645 32.0283 47.3435C32.8354 46.5364 33.5698 45.6615 34.2083 44.7511C35.2317 45.2385 36.1885 45.5519 37.0431 45.676C36.6266 47.0466 35.9302 48.3078 35.0025 49.3717ZM18.0085 32.5246C18.0243 32.4851 18.0361 32.4447 18.0463 32.4041C19.1098 31.4771 20.3708 30.7832 21.7421 30.3676C21.8665 31.2219 22.1792 32.1778 22.6656 33.2002C21.7534 33.8395 20.8771 34.5749 20.0676 35.3844C20.0577 35.3943 20.0477 35.4043 20.0378 35.4142C19.2401 36.2151 18.5257 37.0723 17.9057 37.9603C17.3763 35.9959 17.3813 34.0989 18.0085 32.5246ZM27.3482 27.5993L28.8673 29.1184C27.6408 30.2298 26.2855 31.1776 24.8886 31.872C24.712 31.9597 24.5359 32.0524 24.3603 32.148C23.9478 31.2162 23.7251 30.388 23.7324 29.7492C25.0738 29.2294 26.2901 28.5017 27.3482 27.5993ZM30.8743 22.6086C31.4844 22.6049 32.3082 22.8158 33.2709 23.2402C33.1765 23.4139 33.0849 23.5879 32.9981 23.7625C32.3037 25.1594 31.3559 26.5148 30.2445 27.7413L28.7254 26.2221C29.6272 25.1648 30.3547 23.9492 30.8743 22.6086ZM33.5292 16.9203C33.5702 16.9102 33.6111 16.8981 33.651 16.8822C35.2253 16.2553 37.122 16.2505 39.0865 16.7797C38.1985 17.3997 37.3414 18.1141 36.5405 18.9117C36.5305 18.9217 36.5207 18.9315 36.5106 18.9415C35.6989 19.7532 34.9616 20.6322 34.321 21.5471C33.3063 21.066 32.348 20.7478 31.4925 20.6195C31.9077 19.247 32.6004 17.9848 33.5292 16.9203ZM42.6641 32.5208C41.0655 33.3266 39.5371 34.4013 38.1619 35.6588L35.7188 33.2157L40.3412 28.5933C41.5219 29.8629 42.4662 31.1067 43.1774 32.2481C43.0068 32.343 42.8357 32.4343 42.6641 32.5208ZM34.1961 31.693L31.7751 29.272C33.0131 27.9144 34.0681 26.403 34.8552 24.8194C34.9503 24.628 35.0508 24.4372 35.1561 24.2469C36.3055 24.9585 37.5545 25.9008 38.8173 27.0717L34.196 31.6929L34.1961 31.693ZM21.5632 36.9344C21.5724 36.9252 21.5813 36.9162 21.5905 36.907C22.2577 36.2399 22.9731 35.6293 23.7154 35.0897C24.1235 35.7358 24.589 36.3976 25.1098 37.0678C25.474 37.5365 26.1215 37.6582 26.556 37.3393C26.5929 37.3121 26.6273 37.2826 26.6588 37.2511C26.9971 36.9128 27.0163 36.342 26.6831 35.9131C26.1914 35.2803 25.7506 34.6474 25.369 34.0325C25.5605 33.9263 25.7528 33.825 25.9455 33.7294C27.529 32.9421 29.0406 31.8872 30.3982 30.6492L32.8191 33.0702L21.5076 44.3816C20.4064 43.1456 19.5105 41.8099 18.85 40.4552C19.556 39.23 20.4721 38.0302 21.5632 36.9344ZM20.1274 45.7617L17.7232 48.1659C17.4396 47.617 17.274 46.9682 17.2302 46.2248C17.1644 45.1092 17.375 43.8907 17.8219 42.6505C18.4688 43.7284 19.2394 44.7763 20.1274 45.7617ZM19.2443 49.6904L21.6506 47.2841C22.6273 48.1681 23.664 48.9423 24.7402 49.594C22.6384 50.3548 20.6539 50.428 19.2443 49.6904ZM23.0296 45.905L34.3417 34.5929L36.7849 37.036C35.5273 38.4111 34.4527 39.9397 33.6468 41.5382C33.5611 41.7083 33.4705 41.8779 33.3767 42.0471C32.7886 41.6814 32.1844 41.2621 31.5799 40.7952C31.1101 40.4324 30.4719 40.4916 30.1547 40.927C29.8374 41.3627 29.9609 42.0099 30.4307 42.3727C31.0702 42.8665 31.7018 43.3093 32.3192 43.6999C31.7803 44.4413 31.1708 45.1555 30.5054 45.8208C29.394 46.9323 28.1804 47.8525 26.9526 48.5583C25.5991 47.8973 24.2636 47.0043 23.0296 45.905ZM46.9468 29.3796C46.283 30.0434 45.5703 30.6518 44.831 31.1898C44.0087 29.8894 42.959 28.5403 41.7193 27.2155L43.0226 25.9122C43.4029 25.5319 43.3703 24.8828 42.9498 24.4623C42.5293 24.0418 41.8802 24.0092 41.4999 24.3895L40.1956 25.6938C38.8795 24.4658 37.5243 23.4165 36.2134 22.5929C36.7534 21.8492 37.3649 21.1329 38.0331 20.4647C38.0422 20.4557 38.0514 20.4464 38.0605 20.4374C39.1563 19.3463 40.3561 18.4302 41.5811 17.7241C43.2583 18.5419 44.9072 19.7183 46.3725 21.2012C47.7773 22.6227 48.8957 24.2121 49.6842 25.8269C48.9783 27.0544 48.0582 28.2682 46.9468 29.3796ZM43.7766 16.696C45.0168 16.249 46.2353 16.0384 47.3509 16.1043C48.5524 16.1752 49.5074 16.5628 50.1908 17.2558C50.1981 17.2631 50.2055 17.2704 50.2129 17.2778C51.5538 18.6618 51.6479 21.0513 50.7203 23.6142C49.9128 22.281 48.9188 21.007 47.7597 19.834C46.53 18.5895 45.1786 17.5372 43.7766 16.696ZM45.2837 14.1548C43.9869 14.3515 42.6381 14.7973 41.3114 15.4565C39.8454 14.857 38.3688 14.4932 36.9548 14.3878C38.4774 13.708 40.1881 13.3993 41.9845 13.5004C43.1126 13.5642 44.2211 13.7867 45.2837 14.1548ZM14.6266 40.8584C14.5254 39.0622 14.8342 37.3513 15.5139 35.8288C15.6192 37.2427 15.9831 38.7193 16.5826 40.1854C15.9233 41.5121 15.4776 42.8608 15.281 44.1577C14.9128 43.095 14.6902 41.9865 14.6266 40.8584ZM23.2856 52.1411C24.5625 51.948 25.8979 51.5138 27.2264 50.8512C27.6418 51.0212 28.06 51.1752 28.4805 51.3083C29.5214 51.6375 30.5531 51.8371 31.5476 51.9106C29.0175 53.0274 26.053 53.0946 23.2856 52.1411ZM53.0365 30.4217C52.963 29.4271 52.7635 28.3955 52.4343 27.3546C52.3014 26.9341 52.1473 26.5159 51.9772 26.1005C52.6398 24.772 53.0741 23.4366 53.2672 22.1597C54.2205 24.927 54.1534 27.8915 53.0365 30.4217Z" fill="black"/>
<path d="M43.9357 21.9535L43.7835 22.1058C43.4032 22.486 43.4358 23.1351 43.8563 23.5556C44.2768 23.9761 44.9259 24.0087 45.3062 23.6284L45.4584 23.4762C45.8386 23.0959 45.806 22.4469 45.3855 22.0264C44.965 21.6059 44.316 21.5733 43.9357 21.9535Z" fill="black"/>
</svg>
