<svg width="69" height="69" viewBox="0 0 69 69" fill="none" xmlns="http://www.w3.org/2000/svg">
<circle cx="34.0457" cy="34.0457" r="34.0457" fill="#DBFF75"/>
<path fill-rule="evenodd" clip-rule="evenodd" d="M26.9285 36.3218C23.9975 33.1219 23.2048 24.9614 26.1539 22.0831C24.7389 21.152 22.975 21.6399 22.2786 21.9483C21.318 20.7429 20.3558 20.0036 19.4329 19.5888C16.6925 18.3574 14.2977 19.9868 13.3165 20.7687C12.0049 21.8139 8.65298 24.9835 12.4656 29.768C9.54827 33.6706 16.3486 41.331 21.2748 42.1078C25.1781 42.7233 28.9103 43.4519 31.7152 46.2368H32.5683C32.2462 42.2675 29.196 38.7975 26.9285 36.3218V36.3218Z" fill="#8CC63F"/>
<path fill-rule="evenodd" clip-rule="evenodd" d="M26.9285 36.3218C23.9975 33.1219 23.2048 24.9614 26.1539 22.0831C24.7389 21.152 22.975 21.6399 22.2786 21.9483C21.318 20.7429 20.3558 20.0036 19.4329 19.5888C16.6925 18.3574 14.2977 19.9868 13.3165 20.7687C12.0049 21.8139 8.65298 24.9835 12.4656 29.768C9.54827 33.6706 16.3486 41.331 21.2748 42.1078C25.1781 42.7233 28.9103 43.4519 31.7152 46.2368H32.5683C32.2462 42.2675 29.196 38.7975 26.9285 36.3218V36.3218ZM23.7161 23.293C21.8543 27.2776 22.9121 34.0195 25.8912 37.272C27.475 39.0011 29.3223 41.1013 30.364 43.4097C27.7163 41.8021 25.3496 41.2154 22.1972 40.7184C18.859 40.192 12.8653 34.5842 13.9925 31.1899C14.1563 30.6968 14.6306 30.162 14.9457 29.7406C12.7287 26.9584 11.254 24.7796 14.6213 22.0963C17.6459 19.6861 19.5258 21.5041 21.7146 24.2509C22.1774 23.8502 23.1118 23.4604 23.7161 23.293V23.293Z" fill="#39B54A"/>
<path fill-rule="evenodd" clip-rule="evenodd" d="M34.0032 14.6739C29.5935 8.0801 18.8001 9.39973 19.4328 19.5888C20.3558 20.0036 21.3179 20.7428 22.2785 21.9483C22.975 21.6399 24.7388 21.152 26.1538 22.0831C26.5939 21.6536 27.1173 21.3417 27.7294 21.1815C27.7294 15.0637 32.3261 14.6739 34.0032 14.6739V14.6739Z" fill="#8CC63F"/>
<path fill-rule="evenodd" clip-rule="evenodd" d="M34.0032 14.6739C29.5935 8.0801 18.8001 9.39973 19.4328 19.5888C20.3558 20.0036 21.3179 20.7428 22.2785 21.9483C22.975 21.6399 24.7388 21.152 26.1538 22.0831C26.5939 21.6536 27.1173 21.3417 27.7294 21.1815C27.7294 15.0637 32.3261 14.6739 34.0032 14.6739V14.6739ZM31.1907 13.66C28.3341 14.5391 26.6318 16.8545 26.361 20.2106C26.2288 20.2793 26.1001 20.3542 25.9748 20.4348C24.9478 20.0664 23.7934 20.0525 22.7263 20.3154C22.3721 19.6991 21.847 19.0986 21.5174 18.7312C21.5421 12.4529 26.6357 10.014 31.1907 13.66V13.66Z" fill="#39B54A"/>
<path fill-rule="evenodd" clip-rule="evenodd" d="M48.5736 19.5888C49.2063 9.39973 38.4129 8.0801 34.0032 14.6739C35.6803 14.6739 40.277 15.0637 40.277 21.1815C40.889 21.3417 41.4124 21.6535 41.8524 22.0831C43.2674 21.152 45.0313 21.6399 45.7278 21.9483C46.6884 20.7429 47.6506 20.0036 48.5736 19.5888V19.5888Z" fill="#8CC63F"/>
<path fill-rule="evenodd" clip-rule="evenodd" d="M40.2771 21.1814C40.2771 15.0637 35.6804 14.6739 34.0033 14.6739C32.3262 14.6739 27.7295 15.0637 27.7295 21.1814C27.1174 21.3417 26.594 21.6536 26.1539 22.0831C23.2048 24.9614 23.9975 33.1219 26.9285 36.3218C29.1961 38.7974 32.2461 42.2674 32.5682 46.2367H35.4383C35.7604 42.2676 38.8105 38.7974 41.078 36.3218C44.009 33.1218 44.8017 24.9613 41.8525 22.0831C41.4126 21.6536 40.8892 21.3417 40.2771 21.1814V21.1814Z" fill="#8CC63F"/>
<path fill-rule="evenodd" clip-rule="evenodd" d="M40.2771 21.1814C40.2771 15.0637 35.6804 14.6739 34.0033 14.6739C32.3262 14.6739 27.7295 15.0637 27.7295 21.1814C27.1174 21.3417 26.594 21.6536 26.1539 22.0831C23.2048 24.9614 23.9975 33.1219 26.9285 36.3218C29.1961 38.7974 32.2461 42.2674 32.5682 46.2367H35.4383C35.7604 42.2676 38.8105 38.7974 41.078 36.3218C44.009 33.1218 44.8017 24.9613 41.8525 22.0831C41.4126 21.6536 40.8892 21.3417 40.2771 21.1814V21.1814ZM33.7838 44.8301C33.0246 41.1679 30.4277 38.0596 27.9659 35.3718C26.697 33.9865 26.0342 31.5684 25.8126 29.7463C25.5795 27.8298 25.6443 24.5462 27.1365 23.0897C27.6925 22.5471 28.4144 22.4562 29.1362 22.2672C29.1362 18.7076 29.6953 16.0804 34.0034 16.0804C38.3114 16.0804 38.8705 18.7075 38.8705 22.2672C39.5923 22.4562 40.3141 22.5471 40.8701 23.0897C42.3624 24.5462 42.4272 27.8297 42.1941 29.7462C41.9725 31.5683 41.3097 33.9864 40.0408 35.3717C37.5789 38.0594 34.982 41.1678 34.2229 44.8301H33.7838V44.8301Z" fill="#39B54A"/>
<path fill-rule="evenodd" clip-rule="evenodd" d="M54.69 20.7687C53.7088 19.9868 51.3141 18.3575 48.5736 19.5888C47.6507 20.0035 46.6885 20.7428 45.7279 21.9483C45.0314 21.6399 43.2675 21.152 41.8525 22.0831C44.8017 24.9614 44.009 33.122 41.0779 36.3219C38.8104 38.7975 35.7604 42.2677 35.4382 46.2368H36.2912C39.0961 43.4519 42.8284 42.7234 46.7317 42.1078C51.6578 41.331 58.4581 33.6706 55.5407 29.768C59.3534 24.9835 56.0016 21.8139 54.69 20.7687V20.7687Z" fill="#8CC63F"/>
<path fill-rule="evenodd" clip-rule="evenodd" d="M27.7118 46.2367C26.9382 46.2367 26.3052 46.8697 26.3052 47.6434C26.3052 48.417 26.9383 49.05 27.7118 49.05H40.2692C41.0428 49.05 41.6759 48.417 41.6759 47.6434C41.6759 46.8697 41.0429 46.2367 40.2692 46.2367C36.0834 46.2367 31.8977 46.2367 27.7118 46.2367Z" fill="#C69C6D"/>
<path fill-rule="evenodd" clip-rule="evenodd" d="M32.5966 50.751L32.5967 49.05H30.3547L27.3923 52.7676C26.9101 53.3726 27.0107 54.2621 27.6158 54.7442C28.2208 55.2264 29.1103 55.1259 29.5925 54.5207L32.5966 50.751Z" fill="#8CC63F"/>
<path fill-rule="evenodd" clip-rule="evenodd" d="M35.4098 49.05H32.5964V55.6546C32.5964 56.4283 33.2294 57.0613 34.0031 57.0613C34.7768 57.0613 35.4098 56.4283 35.4098 55.6546V49.05Z" fill="#8CC63F"/>
<path fill-rule="evenodd" clip-rule="evenodd" d="M40.6142 52.7677L37.6518 49.0501H35.4099V50.7511L38.4141 54.521C38.8963 55.1261 39.7857 55.2266 40.3908 54.7445C40.9958 54.2622 41.0964 53.3727 40.6142 52.7677Z" fill="#8CC63F"/>
<path fill-rule="evenodd" clip-rule="evenodd" d="M34.0032 14.6739C38.4129 8.0801 49.2063 9.39973 48.5736 19.5888C47.6506 20.0036 46.6884 20.7428 45.7279 21.9483C45.0314 21.6399 43.2675 21.152 41.8525 22.0831C41.4124 21.6536 40.8891 21.3417 40.277 21.1815C40.277 15.0637 35.6803 14.6739 34.0032 14.6739V14.6739ZM36.8157 13.66C39.6723 14.5391 41.3746 16.8545 41.6455 20.2106C41.7776 20.2793 41.9064 20.3542 42.0316 20.4348C43.0587 20.0664 44.213 20.0525 45.2802 20.3154C45.6344 19.6991 46.1594 19.0986 46.4891 18.7312C46.4643 12.4529 41.3708 10.014 36.8157 13.66V13.66Z" fill="#39B54A"/>
<path fill-rule="evenodd" clip-rule="evenodd" d="M41.6759 47.6434H26.3052C26.3052 48.417 26.9383 49.05 27.7118 49.05H40.2692C41.0429 49.05 41.6759 48.417 41.6759 47.6434Z" fill="#957552"/>
<path fill-rule="evenodd" clip-rule="evenodd" d="M32.5964 49.05V55.6546C32.5964 56.4283 33.2294 57.0613 34.0031 57.0613V50.4567H35.4098V49.05C34.472 49.05 33.5342 49.05 32.5964 49.05V49.05Z" fill="#39B54A"/>
<path fill-rule="evenodd" clip-rule="evenodd" d="M29.5924 54.5209L32.5965 50.751L32.5966 49.05H30.3547L29.2338 50.4567H31.3662L27.6157 54.7443C28.2208 55.2265 29.1103 55.126 29.5924 54.5209Z" fill="#39B54A"/>
<path fill-rule="evenodd" clip-rule="evenodd" d="M41.078 36.3218C44.009 33.1219 44.8017 24.9614 41.8526 22.0831C43.2676 21.152 45.0315 21.6399 45.728 21.9483C46.6885 20.7429 47.6507 20.0036 48.5737 19.5888C51.314 18.3574 53.7088 19.9868 54.69 20.7687C56.0016 21.8139 59.3536 24.9835 55.5409 29.768C58.4583 33.6706 51.6579 41.331 46.7319 42.1078C42.8286 42.7233 39.0963 43.4519 36.2914 46.2368H35.4384C35.7605 42.2675 38.8106 38.7975 41.078 36.3218V36.3218ZM44.2905 23.293C46.1522 27.2776 45.0944 34.0195 42.1153 37.272C40.5316 39.0011 38.6843 41.1013 37.6425 43.4097C40.2902 41.8021 42.6571 41.2154 45.8094 40.7184C49.1476 40.192 55.1413 34.5842 54.0141 31.1899C53.8502 30.6968 53.3759 30.162 53.0609 29.7406C55.2779 26.9584 56.7526 24.7796 53.3854 22.0963C50.3608 19.6861 48.4808 21.5041 46.2921 24.2509C45.8292 23.8502 44.8948 23.4604 44.2905 23.293V23.293Z" fill="#39B54A"/>
<path fill-rule="evenodd" clip-rule="evenodd" d="M38.414 54.5209L35.4099 50.751L35.4098 49.05H37.6517L38.7726 50.4567H36.6402L40.3907 54.7443C39.7857 55.2265 38.8962 55.126 38.414 54.5209V54.5209Z" fill="#39B54A"/>
<path d="M39.522 34.9797L38.4848 34.0296C39.411 33.0182 40.0004 30.8889 40.1771 29.2132V27.843H41.5837L41.5801 29.3214C41.3901 31.178 40.7497 33.6394 39.522 34.9797V34.9797ZM52.3575 33.3401H50.9509V31.9334H52.3575V33.3401ZM17.0557 33.3401H15.649V31.9334H17.0557V33.3401ZM41.5837 26.4363H40.1771V25.0296H41.5837V26.4363ZM52.682 24.9926H51.2754V23.5859H52.682V24.9926ZM16.7311 24.9926H15.3245V23.5859H16.7311V24.9926ZM38.167 22.0294H36.7604V20.6227H38.167V22.0294ZM44.2182 15.3676H42.8116V13.961H44.2182V15.3676ZM25.1948 15.3676H23.7882V13.961H25.1948V15.3676Z" fill="white"/>
<path d="M29.5315 30.8792L28.1376 31.0678C28.5828 34.357 31.7741 36.9983 33.3002 37.8208V40.3981H34.7069V33.4069C36.4074 32.583 37.863 30.7396 38.6965 29.1982L37.4593 28.5291C36.7126 29.91 35.7003 31.0889 34.7069 31.7781V18.9767H33.3002V23.6335L31.7264 22.0394L30.7255 23.0276L33.3002 25.6355V36.1735C31.9585 35.2349 29.8484 33.2208 29.5315 30.8792V30.8792Z" fill="black"/>
<path d="M29.0678 43.5809C26.72 42.4043 24.0936 41.9233 21.3842 41.496C19.4902 41.1973 17.135 39.724 15.2377 37.6512L14.2002 38.6011C16.3024 40.8979 18.9712 42.5395 21.1651 42.8855C23.7608 43.2948 26.2702 43.7522 28.4375 44.8386L29.0678 43.5809Z" fill="black"/>
<path d="M24.083 11.9014C26.4612 10.922 29.4243 11.4302 31.6314 13.196L32.5102 12.0976C29.9098 10.0173 26.3917 9.42963 23.5475 10.6007C20.8525 11.7104 19.1604 14.1245 18.7828 17.3984L20.1801 17.5596C20.4964 14.817 21.8826 12.8075 24.083 11.9014V11.9014Z" fill="black"/>
<path d="M42.9796 11.5972L43.3088 10.2296C40.6722 9.59533 37.7517 10.2936 35.4966 12.0977L36.3754 13.1961C38.2936 11.6614 40.7627 11.0637 42.9796 11.5972Z" fill="black"/>
<path d="M47.8259 17.5596L49.2232 17.3983C48.8622 14.2704 47.2798 11.9049 44.7675 10.7373L44.1747 12.0129C46.2264 12.9665 47.5231 14.9363 47.8259 17.5596Z" fill="black"/>
<path d="M55.1283 20.3017C53.8529 19.2854 52.5387 18.698 51.2223 18.5561C49.1417 18.3316 47.2215 19.2197 45.5075 21.1964C44.4821 20.866 43.1266 20.761 41.9441 21.3123C41.6433 21.0818 41.3181 20.8951 40.9697 20.7544C40.786 16.4874 38.2702 14.0535 34.0034 14.0535C29.7361 14.0535 27.2202 16.4878 27.0371 20.7559C26.6924 20.8971 26.3703 21.0857 26.0717 21.3167C24.8868 20.7606 23.5267 20.8653 22.4987 21.1965C19.6967 17.9782 16.214 17.6438 12.8783 20.3017C9.54095 22.9611 9.09044 26.4328 11.6071 29.8847C10.5091 31.8519 11.1029 34.64 13.2576 37.4729L14.3772 36.6213C12.4526 34.0909 11.9486 31.7174 13.029 30.272L13.3541 29.8372L13.0158 29.4127C10.0261 25.6609 11.7675 22.9854 13.7549 21.4018C15.7424 19.8182 18.7388 18.7178 21.7286 22.4696L22.0669 22.8941L22.5633 22.6744C23.1002 22.4367 24.1051 22.1862 25.0317 22.4298C24.1568 23.6969 23.6487 25.5141 23.5988 27.7189L25.0051 27.7506C25.077 24.5722 26.162 22.4019 27.9076 21.9449L28.4329 21.8074V21.2645C28.4329 16.4672 31.4622 15.4602 34.0034 15.4602C36.5445 15.4602 39.5737 16.4672 39.5737 21.2645V21.8074L40.099 21.9449C41.5513 22.3252 42.2578 23.7679 42.5949 24.9113C43.6213 28.3943 42.6512 33.6461 40.5594 35.9297C40.2781 36.2367 40.0484 36.4902 39.8365 36.7271L40.8851 37.6648C41.0931 37.4322 41.3192 37.1828 41.5967 36.8799C44.0117 34.2434 45.1086 28.4648 43.9441 24.5137C43.7052 23.7029 43.3826 23.0055 42.9851 22.4269C43.9088 22.1877 44.9082 22.4376 45.4432 22.6744L45.9396 22.8941L46.2779 22.4696C47.7541 20.6171 49.3663 19.771 51.0713 19.9546C52.1182 20.0676 53.1882 20.5544 54.2516 21.4018C56.2389 22.9855 57.9805 25.6609 54.9908 29.4128L54.6525 29.8373L54.9776 30.2721C56.058 31.7174 55.554 34.091 53.6293 36.6214L54.7489 37.473C56.9036 34.6401 57.4974 31.852 56.3996 29.8848C58.9161 26.4328 58.4657 22.9611 55.1283 20.3017V20.3017Z" fill="black"/>
<path d="M46.6223 41.496C43.9128 41.9232 41.2866 42.4042 38.9386 43.5809L39.5689 44.8385C41.7364 43.7522 44.2457 43.2948 46.8413 42.8854C49.0354 42.5394 51.7042 40.8977 53.8063 38.6009L52.7687 37.6512C50.8716 39.7241 48.5165 41.1973 46.6223 41.496V41.496Z" fill="black"/>
<path d="M40.2694 45.6164H36.2389C36.7289 42.846 38.576 40.3766 39.9766 38.7101L38.8999 37.8051C37.3514 39.6474 35.296 42.4125 34.8125 45.6164H33.1935C32.6342 41.8695 29.9501 38.6621 27.4473 35.9297C26.152 34.5156 25.2283 31.8957 25.0366 29.0925L23.6332 29.1884C23.8457 32.2946 24.9097 35.2418 26.41 36.8798C28.7206 39.4024 31.1944 42.3406 31.7684 45.6164H27.712C26.5486 45.6164 25.6021 46.5629 25.6021 47.7264C25.6021 48.8898 26.5486 49.8363 27.712 49.8363H31.8935V50.588L29.0426 54.1656C28.9265 54.3113 28.7592 54.4032 28.5714 54.4244C28.3837 54.4454 28.2 54.3933 28.0542 54.2773C27.751 54.0356 27.7008 53.5922 27.9425 53.289L29.2236 51.6813L28.1236 50.8047L26.8425 52.4123C26.1175 53.3221 26.2679 54.6523 27.1777 55.3774C27.5655 55.6864 28.0295 55.8364 28.4906 55.8364C29.1113 55.8364 29.7267 55.5644 30.1427 55.0423L31.8936 52.8452V55.7378C31.8936 56.9012 32.8401 57.8478 34.0035 57.8478C35.1669 57.8478 36.1135 56.9013 36.1135 55.7378V52.8453L37.8643 55.0424C38.2804 55.5646 38.8956 55.8365 39.5164 55.8365C39.9775 55.8365 40.4415 55.6865 40.8292 55.3776C41.2689 55.0273 41.5459 54.5254 41.6093 53.9642C41.6728 53.4031 41.5147 52.8519 41.1644 52.4125L39.8834 50.8049L38.7834 51.6815L40.0644 53.2891C40.1805 53.4349 40.2328 53.6185 40.2115 53.8062C40.1902 53.994 40.0983 54.1614 39.9526 54.2775C39.6493 54.5189 39.2059 54.469 38.9643 54.1658L36.1135 50.5883V49.8365H40.2695C41.4329 49.8365 42.3795 48.8899 42.3795 47.7265C42.3795 46.5631 41.4328 45.6164 40.2694 45.6164V45.6164ZM34.7066 55.7376C34.7066 56.1253 34.3911 56.4409 34.0033 56.4409C33.6155 56.4409 33.3 56.1254 33.3 55.7376V49.8363H34.7066V55.7376ZM40.2694 48.4297H27.7119C27.3242 48.4297 27.0087 48.1142 27.0087 47.7264C27.0087 47.3386 27.3242 47.023 27.7119 47.023H40.2693C40.6572 47.023 40.9726 47.3385 40.9726 47.7264C40.9727 48.1142 40.6572 48.4297 40.2694 48.4297Z" fill="black"/>
</svg>
