<svg width="69" height="69" viewBox="0 0 69 69" fill="none" xmlns="http://www.w3.org/2000/svg">
<circle cx="34.0457" cy="34.0457" r="34.0457" fill="#DBFF75"/>
<path d="M43.3053 21.2646C43.3053 21.2646 40.0641 22.275 38.0963 24.1022C35.1079 26.8773 33.9452 31.909 37.2426 34.3713C40.1237 36.5226 43.7838 34.942 45.0576 31.5269C46.7787 26.9128 43.3053 21.2646 43.3053 21.2646" fill="#9EE8C0"/>
<path d="M43.3052 21.2646C43.3052 21.2646 41.7417 21.7524 40.1274 22.6623C41.0393 24.6274 42.3454 28.3257 41.1513 31.5269C40.5584 33.1163 39.4484 34.3076 38.1409 34.911C40.8423 36.1809 43.913 34.5953 45.0576 31.5269C46.7787 26.9128 43.3052 21.2646 43.3052 21.2646V21.2646Z" fill="#8ADEB0"/>
<path d="M51.6777 16.3223C46.9558 11.6005 40.6777 9 34 9C27.3223 9 21.0442 11.6005 16.3223 16.3223C11.6005 21.0441 9 27.3223 9 34C9 36.8274 9.47021 39.6053 10.3978 42.2565C10.7097 43.1485 12.0924 42.6646 11.7804 41.7729C10.9074 39.2774 10.4648 36.6623 10.4648 34C10.4648 27.7136 12.9129 21.8033 17.3582 17.3581C21.8033 12.9129 27.7136 10.4648 34 10.4648C40.2864 10.4648 46.1967 12.9129 50.6418 17.3581C55.0871 21.8033 57.5352 27.7136 57.5352 34C57.5352 40.2864 55.0871 46.1967 50.6418 50.6418C46.1967 55.0871 40.2864 57.5352 34 57.5352C25.3617 57.5352 17.4317 52.8151 13.3046 45.2169C12.8535 44.3868 11.5665 45.0858 12.0173 45.9161C16.401 53.9865 24.8242 59 34 59C40.6777 59 46.9558 56.3995 51.6777 51.6777C56.3995 46.9558 59 40.6777 59 34C59 27.3223 56.3995 21.0441 51.6777 16.3223V16.3223Z" fill="black"/>
<path d="M25.2743 22.4008C24.9674 21.5073 23.5819 21.9834 23.889 22.8769L32.8161 48.8549C33.0389 49.5031 33.9733 49.5056 34.2 48.8591L38.7432 35.8976C40.0801 36.2467 41.508 36.0571 42.7169 35.394C43.5454 34.9399 42.8412 33.6557 42.0127 34.1096C41.1668 34.5731 40.1733 34.7234 39.2304 34.5077L41.6116 27.7144C41.9242 26.8228 40.5417 26.3385 40.2291 27.2299L37.8825 33.925C36.7489 33.1698 36.0669 31.8896 35.9934 30.5371C35.9203 29.1947 36.341 27.7135 37.1779 26.3663C37.9819 25.072 39.1358 24.0295 40.7054 23.1793C41.4611 22.7701 42.2188 22.4278 42.9656 22.1557C43.6118 23.379 44.1263 24.6786 44.4554 26.0235C44.9141 27.8967 44.9205 29.5613 44.4745 30.9713C44.1906 31.87 45.5841 32.3202 45.8713 31.413C46.3993 29.7432 46.4017 27.8128 45.8783 25.6751C45.4712 24.0121 44.8193 22.3528 43.932 20.8856C43.7542 20.5921 43.3824 20.4599 43.0591 20.5745C42.0528 20.8969 41.0263 21.3396 40.0077 21.8912C38.233 22.8524 36.8623 24.098 35.9333 25.5933C34.9396 27.1932 34.4414 28.9772 34.5305 30.6165C34.6361 32.5586 35.6901 34.3659 37.386 35.3407L33.5156 46.3828L25.2743 22.4008Z" fill="black"/>
</svg>
